<svg width="37" height="36" viewBox="0 0 37 36" fill="none" xmlns="http://www.w3.org/2000/svg">
<path d="M18.2526 33.475C17.7129 33.4762 17.1795 33.3599 16.6898 33.1343C16.2 32.9087 15.7658 32.5794 15.4176 32.1693L14.1046 30.6856C13.8817 30.425 13.6017 30.2186 13.2862 30.0823C12.9706 29.946 12.6279 29.8833 12.2842 29.8992L10.2848 30.0772C9.74565 30.122 9.20317 30.0495 8.69497 29.865C8.18678 29.6805 7.72504 29.3882 7.34178 29.0085C6.95851 28.6288 6.66289 28.1707 6.47542 27.666C6.28795 27.1614 6.21311 26.6222 6.2561 26.0859L6.31579 24.0532C6.34357 23.7014 6.28627 23.3481 6.14869 23.0229C6.01112 22.6976 5.79725 22.4099 5.52497 22.1836L4.03287 20.8927C3.61853 20.5459 3.28545 20.1133 3.05695 19.625C2.82845 19.1368 2.71005 18.6047 2.71005 18.0662C2.71005 17.5276 2.82845 16.9956 3.05695 16.5074C3.28545 16.0191 3.61853 15.5864 4.03287 15.2396L5.52497 13.9339C5.79115 13.7091 6.00115 13.4259 6.13839 13.1066C6.27564 12.7873 6.33637 12.4407 6.31579 12.094L6.16658 10.0613C6.12159 9.52516 6.19441 8.98572 6.37999 8.48037C6.56558 7.97502 6.85949 7.51586 7.24134 7.13474C7.62318 6.75361 8.08383 6.45965 8.59133 6.27323C9.09883 6.0868 9.64104 6.01239 10.1803 6.05514L12.1947 6.159C12.5435 6.1938 12.8957 6.14607 13.2224 6.01972C13.5491 5.89336 13.8412 5.69196 14.0747 5.43196L15.3729 3.9482C15.7208 3.52228 16.1598 3.17878 16.6579 2.94266C17.156 2.70654 17.7008 2.58373 18.2526 2.58314C18.7923 2.58202 19.3258 2.69832 19.8155 2.92387C20.3052 3.14943 20.7394 3.47879 21.0876 3.88885L22.4007 5.37261C22.625 5.63148 22.9052 5.83665 23.2204 5.97281C23.5356 6.10898 23.8777 6.17262 24.2211 6.159L26.2205 5.98095C26.7596 5.93621 27.3021 6.00862 27.8103 6.19317C28.3185 6.37772 28.7802 6.66999 29.1635 7.0497C29.5468 7.42941 29.8424 7.88748 30.0298 8.39214C30.2173 8.8968 30.2922 9.43597 30.2492 9.97227L30.1895 12.005C30.1617 12.3568 30.219 12.71 30.3566 13.0353C30.4941 13.3605 30.708 13.6483 30.9803 13.8746L32.4724 15.1654C32.8867 15.5122 33.2198 15.9449 33.4483 16.4332C33.6768 16.9214 33.7952 17.4535 33.7952 17.992C33.7952 18.5305 33.6768 19.0626 33.4483 19.5508C33.2198 20.0391 32.8867 20.4718 32.4724 20.8186L30.9803 22.1243C30.7141 22.349 30.5041 22.6322 30.3669 22.9515C30.2296 23.2708 30.1689 23.6175 30.1895 23.9641L30.3685 25.9672C30.4135 26.5033 30.3407 27.0428 30.1551 27.5481C29.9695 28.0535 29.6756 28.5126 29.2938 28.8938C28.9119 29.2749 28.4513 29.5688 27.9438 29.7553C27.4363 29.9417 26.8941 30.0161 26.3548 29.9734L24.3106 29.8992C23.957 29.8728 23.6021 29.9303 23.2752 30.067C22.9484 30.2038 22.6588 30.4158 22.4305 30.6856L21.1324 32.1693C20.7849 32.5813 20.3513 32.9129 19.8616 33.141C19.3719 33.3691 18.8381 33.4882 18.2974 33.4899L18.2526 33.475ZM12.4334 28.4154C12.9731 28.4143 13.5066 28.5306 13.9963 28.7561C14.486 28.9817 14.9202 29.3111 15.2684 29.7211L16.5815 31.2049C16.7889 31.4529 17.049 31.652 17.3432 31.788C17.6373 31.924 17.9581 31.9934 18.2825 31.9913C18.6082 31.9886 18.9296 31.9171 19.2255 31.7816C19.5213 31.646 19.7848 31.4494 19.9984 31.2049L21.2965 29.7211C21.6727 29.2665 22.1547 28.9101 22.7007 28.6825C23.2467 28.455 23.8403 28.3633 24.4299 28.4154L26.4443 28.5638C26.7669 28.5934 27.0922 28.5515 27.3966 28.4412C27.701 28.3309 27.9771 28.1548 28.205 27.9258C28.434 27.6951 28.61 27.4178 28.7207 27.113C28.8315 26.8081 28.8744 26.483 28.8466 26.1601L28.6974 24.1273C28.6428 23.5414 28.7309 22.951 28.9543 22.406C29.1776 21.8611 29.5296 21.3777 29.9806 20.9966L31.4727 19.6909C31.7237 19.4907 31.9273 19.2381 32.0691 18.9509C32.2109 18.6637 32.2875 18.349 32.2933 18.0291C32.2907 17.7052 32.2188 17.3855 32.0825 17.0914C31.9461 16.7972 31.7484 16.5352 31.5025 16.3228L30.0104 15.0319C29.5499 14.6541 29.1894 14.1698 28.9605 13.6215C28.7316 13.0731 28.6413 12.4774 28.6974 11.8863L28.8466 9.88324C28.8753 9.56248 28.8327 9.23936 28.7218 8.93679C28.6109 8.63422 28.4345 8.3596 28.205 8.1324C27.9736 7.90384 27.6948 7.72831 27.3881 7.61811C27.0814 7.5079 26.7542 7.46567 26.4294 7.49439L24.3852 7.64276C23.7956 7.70086 23.2007 7.615 22.652 7.39263C22.1034 7.17026 21.6176 6.8181 21.2368 6.36673L19.9238 4.88297C19.7225 4.63338 19.4684 4.43089 19.1796 4.28986C18.8908 4.14883 18.5743 4.07271 18.2526 4.0669C17.9269 4.06955 17.6055 4.14103 17.3096 4.27661C17.0138 4.41218 16.7503 4.60876 16.5367 4.85329L15.2386 6.33705C14.8578 6.79402 14.3707 7.15176 13.8195 7.37928C13.2683 7.6068 12.6696 7.69724 12.0753 7.64276L10.061 7.49439C9.7384 7.46585 9.41347 7.50821 9.1092 7.61847C8.80493 7.72873 8.52877 7.90418 8.30029 8.1324C8.06518 8.36803 7.88565 8.65266 7.77469 8.96572C7.66373 9.27878 7.6241 9.61244 7.65868 9.94259L7.80789 11.9308C7.86248 12.5168 7.77436 13.1072 7.55101 13.6521C7.32765 14.1971 6.97562 14.6805 6.52468 15.0616L5.03258 16.3673C4.78159 16.5675 4.57796 16.8201 4.43614 17.1073C4.29432 17.3945 4.21777 17.7092 4.21192 18.0291C4.21458 18.353 4.28647 18.6726 4.42281 18.9668C4.55915 19.261 4.75683 19.523 5.00274 19.7354L6.49484 21.0263C6.95538 21.4041 7.31585 21.8884 7.54474 22.4367C7.77363 22.985 7.86398 23.5808 7.80789 24.1719L7.65868 26.1749C7.62999 26.4957 7.67259 26.8188 7.78347 27.1214C7.89434 27.424 8.07079 27.6986 8.30029 27.9258C8.53164 28.1543 8.81042 28.3299 9.11713 28.4401C9.42384 28.5503 9.75106 28.5925 10.0759 28.5638L12.1201 28.4154H12.4334Z" fill="#95E1D3"/>
<path d="M18.2526 23.2223C16.8676 23.2223 15.5393 22.6751 14.5599 21.7012C13.5805 20.7273 13.0303 19.4064 13.0303 18.0291C13.0303 16.6518 13.5805 15.3309 14.5599 14.357C15.5393 13.3831 16.8676 12.8359 18.2526 12.8359C19.6377 12.8359 20.966 13.3831 21.9454 14.357C22.9248 15.3309 23.475 16.6518 23.475 18.0291C23.475 19.4064 22.9248 20.7273 21.9454 21.7012C20.966 22.6751 19.6377 23.2223 18.2526 23.2223ZM18.2526 14.3197C17.2633 14.3197 16.3145 14.7105 15.6149 15.4062C14.9154 16.1018 14.5224 17.0453 14.5224 18.0291C14.5224 19.0129 14.9154 19.9564 15.6149 20.652C16.3145 21.3477 17.2633 21.7385 18.2526 21.7385C19.242 21.7385 20.1908 21.3477 20.8903 20.652C21.5899 19.9564 21.9829 19.0129 21.9829 18.0291C21.9829 17.0453 21.5899 16.1018 20.8903 15.4062C20.1908 14.7105 19.242 14.3197 18.2526 14.3197Z" fill="#95E1D3"/>
</svg>
