<svg width="17" height="18" viewBox="0 0 17 18" fill="none" xmlns="http://www.w3.org/2000/svg">
<path d="M8.79868 14.9904H6.09139V6.86854H8.79868V8.22219C9.08368 7.85959 9.4454 7.56457 9.85788 7.35827C10.2704 7.15196 10.7234 7.03951 11.1845 7.02895C11.9908 7.03343 12.7625 7.3575 13.3303 7.93009C13.8981 8.50269 14.2156 9.27708 14.2132 10.0834V14.9904H11.506V10.4219C11.4536 10.0561 11.2709 9.72153 10.9914 9.47977C10.712 9.23802 10.3546 9.10532 9.98514 9.10611C9.81977 9.11134 9.65715 9.14993 9.50705 9.21955C9.35696 9.28917 9.22247 9.3884 9.11166 9.51127C9.00086 9.63415 8.91602 9.77815 8.86224 9.93462C8.80845 10.0911 8.78683 10.2568 8.79868 10.4219V14.9904ZM4.73775 14.9904H2.03046V6.86854H4.73775V14.9904ZM3.38411 5.5149C3.0251 5.5149 2.68079 5.37229 2.42694 5.11843C2.17308 4.86457 2.03046 4.52027 2.03046 4.16126C2.03046 3.80225 2.17308 3.45795 2.42694 3.20409C2.68079 2.95023 3.0251 2.80762 3.38411 2.80762C3.74311 2.80762 4.08742 2.95023 4.34128 3.20409C4.59513 3.45795 4.73775 3.80225 4.73775 4.16126C4.73775 4.52027 4.59513 4.86457 4.34128 5.11843C4.08742 5.37229 3.74311 5.5149 3.38411 5.5149Z" fill="#95E1D3"/>
</svg>
