<svg width="17" height="18" viewBox="0 0 17 18" fill="none" xmlns="http://www.w3.org/2000/svg">
<path d="M7.22168 10.9955C6.87921 12.8405 6.46229 14.6097 5.22506 15.5336C4.84401 12.7451 5.78615 10.6503 6.22337 8.42693C5.47752 7.13421 6.31339 4.53183 7.88632 5.17278C9.82203 5.96195 6.20984 9.97956 8.63489 10.4818C11.1669 11.0056 12.2011 5.95857 10.6308 4.3166C8.36213 1.94705 4.02709 4.26313 4.56042 7.65603C4.69037 8.48582 5.52219 8.7376 4.89274 9.88278C3.44096 9.55046 3.0078 8.37144 3.06397 6.79918C3.15331 4.22726 5.30899 2.42556 7.47075 2.17649C10.2051 1.86109 12.7709 3.21 13.1249 5.8584C13.5242 8.84724 11.8911 12.0852 8.96788 11.8516C8.17532 11.7887 7.84233 11.3846 7.22168 10.9955Z" fill="#95E1D3"/>
</svg>
