<svg width="17" height="18" viewBox="0 0 17 18" fill="none" xmlns="http://www.w3.org/2000/svg">
<path d="M11.2352 4.71625C11.2352 4.71625 11.5804 5.05466 11.2352 4.71625C10.7726 4.18808 10.5176 3.50977 10.5178 2.80762H8.42643V11.2002C8.4103 11.6544 8.21856 12.0845 7.89158 12.4002C7.56461 12.7158 7.12791 12.8922 6.67346 12.8923C5.71238 12.8923 4.91373 12.1071 4.91373 11.1325C4.91373 9.96839 6.03725 9.09529 7.19461 9.454V7.31525C4.85958 7.00391 2.81558 8.81779 2.81558 11.1325C2.81558 13.3863 4.68361 14.9904 6.66669 14.9904C8.79191 14.9904 10.5178 13.2645 10.5178 11.1325V6.87531C11.3659 7.48435 12.384 7.81112 13.4281 7.80933V5.71795C13.4281 5.71795 12.1557 5.77886 11.2352 4.71625Z" fill="#95E1D3"/>
</svg>
