<svg width="17" height="18" viewBox="0 0 17 18" fill="none" xmlns="http://www.w3.org/2000/svg">
<path d="M13.288 6.18995C13.2968 6.3084 13.2968 6.42616 13.2968 6.54393C13.2968 10.148 10.5537 14.301 5.54046 14.301C3.99595 14.301 2.56109 13.8536 1.35364 13.0766C1.57293 13.1017 1.7841 13.1104 2.01219 13.1104C3.23926 13.1134 4.43158 12.7031 5.39697 11.9456C4.82805 11.9353 4.27654 11.7476 3.81946 11.4087C3.36238 11.0698 3.02254 10.5967 2.84739 10.0553C3.01591 10.0803 3.18512 10.0972 3.36245 10.0972C3.60678 10.0972 3.85246 10.0634 4.08055 10.0045C3.46313 9.87986 2.90794 9.54519 2.50939 9.05743C2.11084 8.56967 1.89354 7.95893 1.89442 7.32904V7.2952C2.25787 7.49757 2.67953 7.62414 3.12624 7.64106C2.75201 7.39238 2.44516 7.05495 2.23306 6.65885C2.02096 6.26275 1.9102 5.82031 1.91067 5.371C1.91067 4.86474 2.04535 4.40044 2.28156 3.9957C2.9666 4.83836 3.821 5.52773 4.78941 6.01916C5.75783 6.5106 6.81868 6.79315 7.90324 6.8485C7.86128 6.64545 7.83556 6.43496 7.83556 6.22379C7.83538 5.86573 7.90577 5.51114 8.04272 5.1803C8.17966 4.84946 8.38047 4.54885 8.63366 4.29566C8.88685 4.04247 9.18745 3.84166 9.5183 3.70472C9.84914 3.56778 10.2037 3.49738 10.5618 3.49756C11.3469 3.49756 12.0555 3.82649 12.5537 4.35848C13.164 4.24045 13.7493 4.01764 14.2836 3.69993C14.0802 4.32992 13.654 4.86413 13.085 5.20247C13.6263 5.14073 14.1553 4.99838 14.6545 4.78013C14.2817 5.32369 13.8197 5.80034 13.288 6.18995Z" fill="#95E1D3"/>
</svg>
