<svg width="116" height="116" viewBox="0 0 116 116" fill="none" xmlns="http://www.w3.org/2000/svg">
<rect x="1.09933" y="1.48212" width="113.285" height="113.285" stroke="#95E1D3" stroke-width="2"/>
<path d="M60.7934 81.4075C56.9488 81.411 53.1597 80.4903 49.7453 78.7232C49.5801 78.6379 49.4334 78.5208 49.3135 78.3788C49.1936 78.2367 49.1029 78.0725 49.0465 77.8954C48.9901 77.7183 48.9691 77.5318 48.9848 77.3466C49.0004 77.1614 49.0524 76.981 49.1377 76.8159C49.2231 76.6508 49.3401 76.5041 49.4822 76.3842C49.6242 76.2643 49.7885 76.1736 49.9656 76.1171C50.1427 76.0607 50.3292 76.0398 50.5144 76.0554C50.6996 76.0711 50.8799 76.1231 51.045 76.2084C55.6183 78.535 60.8789 79.1282 65.8554 77.8784C70.8319 76.6286 75.1881 73.6203 78.1195 69.409C81.0508 65.1978 82.3593 60.068 81.8033 54.9672C81.2473 49.8664 78.8643 45.1391 75.0945 41.6583C71.3247 38.1775 66.4227 36.1783 61.2938 36.0301C56.1649 35.8818 51.1556 37.5945 47.191 40.8517C43.2264 44.109 40.5744 48.6908 39.7247 53.751C38.875 58.8112 39.885 64.0079 42.5682 68.3815C42.7575 68.7051 42.8132 69.0897 42.7235 69.4537C42.6338 69.8178 42.4058 70.1325 42.0879 70.3311C41.9286 70.4286 41.7515 70.4934 41.567 70.522C41.3825 70.5506 41.1941 70.5423 41.0128 70.4976C40.8315 70.4529 40.6609 70.3728 40.5108 70.2618C40.3606 70.1507 40.234 70.0111 40.1382 69.8508C37.0374 64.8853 35.8569 58.9582 36.8186 53.1836C37.7804 47.4089 40.8181 42.1844 45.3609 38.4919C49.9036 34.7993 55.6386 32.8931 61.488 33.1315C67.3373 33.3699 72.8981 35.7364 77.1254 39.7863C80.3899 42.8121 82.7494 46.6856 83.9405 50.9744C85.1315 55.2632 85.1073 59.7987 83.8706 64.0746C82.6338 68.3504 80.2332 72.1985 76.9366 75.1893C73.6399 78.1801 69.577 80.196 65.2013 81.0119C63.7478 81.2824 62.2719 81.4149 60.7934 81.4075V81.4075Z" fill="#95E1D3"/>
<path d="M38.8667 82.8768C38.3189 82.8665 37.7822 82.7214 37.3039 82.4542C36.8256 82.1871 36.4205 81.8063 36.1244 81.3454C35.8283 80.8844 35.6503 80.3577 35.6062 79.8116C35.5621 79.2656 35.6532 78.7171 35.8715 78.2146L40.1664 68.551C40.3263 68.2085 40.6143 67.9425 40.9685 67.8104C41.3226 67.6783 41.7144 67.6906 42.0596 67.8446C42.4001 67.9988 42.6656 68.2816 42.798 68.6312C42.9304 68.9807 42.9189 69.3684 42.766 69.7095L38.4428 79.3731C38.3878 79.4465 38.3581 79.5357 38.3581 79.6274C38.3581 79.7191 38.3878 79.8083 38.4428 79.8817C38.5045 79.9523 38.5856 80.0034 38.676 80.0285C38.7664 80.0536 38.8621 80.0517 38.9514 80.023L49.83 76.1519C50.0041 76.0849 50.1899 76.0538 50.3764 76.0604C50.5628 76.0671 50.7459 76.1113 50.9148 76.1905C51.0837 76.2696 51.2349 76.3821 51.3592 76.5212C51.4836 76.6602 51.5785 76.8229 51.6384 76.9996C51.7656 77.3518 51.7478 77.7401 51.5889 78.0792C51.4299 78.4183 51.1428 78.6804 50.7907 78.808L39.9969 82.6791C39.6354 82.8133 39.2523 82.8803 38.8667 82.8768Z" fill="#95E1D3"/>
</svg>
