<svg width="28" height="28" viewBox="0 0 28 28" fill="none" xmlns="http://www.w3.org/2000/svg">
<path d="M26.2483 14.2356C26.2509 14.3584 26.2109 14.4783 26.1352 14.575L20.3443 22.3225C20.2916 22.3936 20.2235 22.4519 20.1452 22.493C20.0669 22.5341 19.9803 22.557 19.8919 22.5601H8.29877C8.20842 22.5587 8.11959 22.5366 8.03917 22.4955C7.95875 22.4543 7.8889 22.3951 7.83504 22.3225L2.04415 14.575C1.97243 14.4764 1.93379 14.3576 1.93379 14.2356C1.93379 14.1137 1.97243 13.9949 2.04415 13.8963L7.83504 6.14875C7.88947 6.07763 7.95971 6.02017 8.0402 5.98091C8.12069 5.94164 8.20922 5.92166 8.29877 5.92254H19.8919C19.9795 5.9234 20.0658 5.94421 20.1442 5.98341C20.2226 6.02261 20.291 6.07915 20.3443 6.14875L26.1352 13.8963C26.2093 13.9938 26.2491 14.1131 26.2483 14.2356ZM19.6091 21.429L24.9815 14.2356L19.6091 7.05357L8.58152 7.05357L3.1978 14.2356L8.58152 21.429H19.6091Z" fill="#95E1D3"/>
<path d="M19.8353 14.2356C19.8379 14.3584 19.798 14.4783 19.7222 14.575L17.1321 18.0472C17.0789 18.1168 17.0104 18.1734 16.9321 18.2126C16.8537 18.2518 16.7674 18.2726 16.6797 18.2734H11.4996C11.412 18.2726 11.3257 18.2518 11.2473 18.2126C11.1689 18.1734 11.1004 18.1168 11.0472 18.0472L8.43449 14.575C8.3574 14.4787 8.31539 14.359 8.31539 14.2356C8.31539 14.1123 8.3574 13.9926 8.43449 13.8963L11.0246 10.4354C11.0759 10.3638 11.144 10.3058 11.2228 10.2664C11.3016 10.2269 11.3889 10.2073 11.477 10.2092H16.6571C16.7452 10.2073 16.8324 10.2269 16.9113 10.2664C16.9901 10.3058 17.0581 10.3638 17.1095 10.4354L19.7448 13.8963C19.811 13.9966 19.8427 14.1157 19.8353 14.2356ZM16.3517 17.1424L18.6138 14.2356L16.3517 11.3176H11.8276L9.56552 14.2356L11.8276 17.1424H16.3517Z" fill="#95E1D3"/>
</svg>
