<svg width="34" height="35" viewBox="0 0 34 35" fill="none" xmlns="http://www.w3.org/2000/svg">
<path d="M17.0871 17.6273C15.5707 17.6273 14.0883 17.1776 12.8274 16.3351C11.5666 15.4927 10.5838 14.2952 10.0035 12.8942C9.42322 11.4932 9.27138 9.95157 9.56722 8.46428C9.86306 6.97698 10.5933 5.61081 11.6656 4.53853C12.7379 3.46625 14.104 2.73602 15.5913 2.44017C17.0786 2.14433 18.6202 2.29617 20.0212 2.87648C21.4223 3.4568 22.6197 4.43953 23.4622 5.70039C24.3047 6.96126 24.7544 8.44364 24.7544 9.96008C24.7507 11.9924 23.9417 13.9405 22.5046 15.3776C21.0675 16.8146 19.1195 17.6236 17.0871 17.6273ZM17.0871 3.68689C15.8464 3.68689 14.6336 4.05481 13.6019 4.74411C12.5703 5.43342 11.7663 6.41316 11.2915 7.55943C10.8167 8.70571 10.6924 9.96704 10.9345 11.1839C11.1765 12.4008 11.774 13.5186 12.6513 14.3959C13.5286 15.2732 14.6464 15.8707 15.8633 16.1127C17.0802 16.3548 18.3415 16.2306 19.4878 15.7557C20.634 15.2809 21.6138 14.4769 22.3031 13.4453C22.9924 12.4137 23.3603 11.2008 23.3603 9.96008C23.3566 8.29746 22.6945 6.70399 21.5189 5.52833C20.3432 4.35268 18.7497 3.69057 17.0871 3.68689Z" fill="white"/>
<path d="M4.54075 28.7796C4.35589 28.7796 4.1786 28.7062 4.04788 28.5755C3.91717 28.4448 3.84373 28.2675 3.84373 28.0826C3.84742 24.9411 5.09702 21.9293 7.3184 19.7079C9.53979 17.4866 12.5516 16.237 15.6931 16.2333H18.4812C18.666 16.2333 18.8433 16.3067 18.974 16.4374C19.1048 16.5681 19.1782 16.7454 19.1782 16.9303C19.1782 17.1152 19.1048 17.2924 18.974 17.4232C18.8433 17.5539 18.666 17.6273 18.4812 17.6273H15.6931C12.9202 17.6273 10.2608 18.7289 8.30006 20.6896C6.33931 22.6504 5.23777 25.3097 5.23777 28.0826C5.23777 28.2675 5.16434 28.4448 5.03362 28.5755C4.9029 28.7062 4.72561 28.7796 4.54075 28.7796Z" fill="white"/>
<path d="M23.3603 32.9618C23.1754 32.9618 22.9982 32.8883 22.8674 32.7576C22.7367 32.6269 22.6633 32.4496 22.6633 32.2648V21.1124C22.6633 20.9276 22.7367 20.7503 22.8674 20.6196C22.9982 20.4888 23.1754 20.4154 23.3603 20.4154C23.5452 20.4154 23.7225 20.4888 23.8532 20.6196C23.9839 20.7503 24.0573 20.9276 24.0573 21.1124V32.2648C24.0573 32.4496 23.9839 32.6269 23.8532 32.7576C23.7225 32.8883 23.5452 32.9618 23.3603 32.9618Z" fill="white"/>
<path d="M28.9365 27.3856H17.7841C17.5993 27.3856 17.422 27.3122 17.2913 27.1815C17.1606 27.0508 17.0871 26.8735 17.0871 26.6886C17.0871 26.5037 17.1606 26.3264 17.2913 26.1957C17.422 26.065 17.5993 25.9916 17.7841 25.9916H28.9365C29.1213 25.9916 29.2986 26.065 29.4293 26.1957C29.5601 26.3264 29.6335 26.5037 29.6335 26.6886C29.6335 26.8735 29.5601 27.0508 29.4293 27.1815C29.2986 27.3122 29.1213 27.3856 28.9365 27.3856Z" fill="white"/>
</svg>
