<svg width="17" height="18" viewBox="0 0 17 18" fill="none" xmlns="http://www.w3.org/2000/svg">
<path d="M8.12185 1.16406C3.84975 1.16406 0.386749 4.62707 0.386749 8.89916C0.386749 13.1713 3.84975 16.6343 8.12185 16.6343C12.3939 16.6343 15.8569 13.1713 15.8569 8.89916C15.8569 4.62707 12.3939 1.16406 8.12185 1.16406ZM8.12185 2.28488C9.80694 2.28488 11.3451 2.91529 12.5131 3.95257C11.6549 5.0846 10.3511 5.83838 9.04465 6.34851C8.30507 5.00158 7.47621 3.70563 6.56361 2.46936C7.07401 2.34633 7.59722 2.2844 8.12223 2.28488H8.12185ZM5.30782 2.91142C6.17028 4.20164 7.00567 5.39787 7.76874 6.7519C5.83883 7.25197 3.65792 7.55209 1.64332 7.55712C2.06797 5.49649 3.45217 3.78549 5.30782 2.91181V2.91142ZM13.2467 4.71757C14.2025 5.88555 14.7283 7.34628 14.7361 8.85546C13.2061 8.55379 11.6846 8.47489 10.1353 8.63114C9.96125 8.19681 9.75009 7.78415 9.54781 7.33938C10.8833 6.80063 12.3112 5.87861 13.2467 4.71718V4.71757ZM8.30594 7.77525C8.47147 8.1272 8.6633 8.5008 8.84353 8.88253C6.68931 9.8324 4.39778 11.1017 3.20851 13.3271C2.06682 12.0637 1.45837 10.4074 1.51066 8.7054C3.81765 8.69457 6.0821 8.40605 8.30594 7.77525ZM11.8014 9.57869C12.764 9.5789 13.7226 9.70237 14.6538 9.94611C14.5102 10.8419 14.1838 11.6986 13.695 12.4629C13.2062 13.2272 12.5653 13.8827 11.8123 14.3888C11.4572 12.7741 11.1188 11.229 10.5205 9.67112C10.9446 9.60933 11.3725 9.57831 11.801 9.5783L11.8014 9.57869ZM14.6882 9.69858C14.6835 9.73649 14.6793 9.77361 14.6739 9.81074C14.6793 9.77323 14.6839 9.7361 14.6882 9.69858ZM9.29681 9.97318C9.90633 11.5484 10.3848 13.2927 10.7058 14.9902C9.88862 15.3369 9.00988 15.515 8.12223 15.5138C6.65173 15.5159 5.22284 15.0258 4.06324 14.1215C5.26102 12.1785 7.11629 10.708 9.29642 9.97357L9.29681 9.97318Z" fill="#95E1D3"/>
</svg>
