<svg width="17" height="18" viewBox="0 0 17 18" fill="none" xmlns="http://www.w3.org/2000/svg">
<path d="M8.12321 15.0182C6.45823 15.0182 6.26195 15.0094 5.6122 14.981C5.10551 14.9643 4.60538 14.8613 4.13335 14.6764C3.72941 14.5192 3.36257 14.2797 3.05613 13.9732C2.74969 13.6666 2.51035 13.2997 2.35331 12.8957C2.17551 12.4219 2.07961 11.9214 2.06972 11.4155C2.03182 10.7671 2.03182 10.5545 2.03182 8.90243C2.03182 7.23271 2.04062 7.03778 2.06972 6.39142C2.07983 5.88619 2.17572 5.38634 2.35331 4.91324C2.51017 4.50873 2.74968 4.14138 3.05652 3.83465C3.36336 3.52792 3.73081 3.28856 4.13538 3.13185C4.60823 2.9533 5.1082 2.85716 5.61355 2.84758C6.25992 2.81104 6.47244 2.81104 8.12321 2.81104C9.80172 2.81104 9.99462 2.81983 10.6342 2.84758C11.1405 2.85706 11.6427 2.95317 12.1165 3.13185C12.5209 3.28874 12.8883 3.52817 13.1951 3.83487C13.5019 4.14158 13.7415 4.50884 13.8985 4.91324C14.0792 5.39378 14.176 5.9014 14.1835 6.41375C14.2214 7.06215 14.2214 7.27399 14.2214 8.92544C14.2214 10.5769 14.2119 10.7935 14.1835 11.4344C14.1733 11.9408 14.0772 12.4418 13.8992 12.916C13.7418 13.3203 13.502 13.6874 13.1951 13.9941C12.8882 14.3007 12.5209 14.5402 12.1165 14.6974C11.6427 14.8747 11.1425 14.9708 10.6369 14.981C9.99056 15.0182 9.77871 15.0182 8.12321 15.0182ZM8.1002 3.88244C6.44469 3.88244 6.27278 3.89056 5.62641 3.91967C5.24039 3.92472 4.85809 3.99591 4.49612 4.13016C4.23212 4.23136 3.99224 4.38675 3.79197 4.58632C3.5917 4.7859 3.43546 5.02523 3.33334 5.28888C3.19798 5.65436 3.12691 6.04083 3.12285 6.43067C3.08698 7.08651 3.08698 7.25843 3.08698 8.90243C3.08698 10.5268 3.09307 10.7238 3.12285 11.3755C3.12894 11.7613 3.20001 12.1437 3.33334 12.5058C3.54045 13.0385 3.96279 13.4595 4.4968 13.6639C4.8583 13.799 5.24052 13.8702 5.62641 13.8744C6.28158 13.9123 6.45417 13.9123 8.1002 13.9123C9.76044 13.9123 9.93235 13.9041 10.5733 13.8744C10.9594 13.8697 11.3417 13.7985 11.7036 13.6639C11.9662 13.5619 12.2047 13.4064 12.4039 13.2073C12.6032 13.0081 12.7588 12.7697 12.861 12.5072C12.9963 12.1417 13.0674 11.7545 13.0714 11.3647H13.0789C13.108 10.7177 13.108 10.5451 13.108 8.8916C13.108 7.23812 13.1005 7.06418 13.0714 6.41781C13.0653 6.03234 12.9942 5.65066 12.861 5.28888C12.7591 5.02596 12.6035 4.78715 12.4043 4.58766C12.205 4.38816 11.9664 4.23235 11.7036 4.13016C11.3415 3.9948 10.9591 3.92441 10.5733 3.91967C9.91881 3.88244 9.74758 3.88244 8.1002 3.88244ZM8.12321 12.0287C7.5043 12.0291 6.89918 11.8459 6.38438 11.5024C5.86957 11.1588 5.46821 10.6703 5.23106 10.0987C4.9939 9.52701 4.93161 8.89786 5.05206 8.29079C5.1725 7.68372 5.47028 7.126 5.90772 6.68818C6.34516 6.25036 6.90262 5.9521 7.50959 5.83113C8.11655 5.71016 8.74576 5.7719 9.31763 6.00856C9.8895 6.24522 10.3783 6.64616 10.7223 7.16067C11.0663 7.67517 11.25 8.28014 11.2501 8.89904C11.249 9.72827 10.9193 10.5233 10.3332 11.1099C9.74715 11.6965 8.95244 12.0269 8.12321 12.0287ZM8.12321 6.86722C7.72162 6.86722 7.32905 6.98631 6.99514 7.20942C6.66123 7.43253 6.40098 7.74964 6.2473 8.12066C6.09362 8.49168 6.05341 8.89994 6.13176 9.29381C6.2101 9.68768 6.40349 10.0495 6.68745 10.3334C6.97142 10.6174 7.33321 10.8108 7.72708 10.8891C8.12095 10.9675 8.52921 10.9273 8.90023 10.7736C9.27125 10.6199 9.58837 10.3597 9.81148 10.0258C10.0346 9.69184 10.1537 9.29928 10.1537 8.89769C10.1524 8.35956 9.93809 7.84383 9.55758 7.46332C9.17706 7.0828 8.66134 6.86848 8.12321 6.86722ZM11.3719 6.38465C11.2761 6.3843 11.1813 6.36507 11.0929 6.32808C11.0046 6.29108 10.9243 6.23704 10.8568 6.16904C10.7205 6.0317 10.6443 5.84584 10.645 5.65233C10.6458 5.45882 10.7233 5.27353 10.8607 5.13721C10.998 5.00089 11.1839 4.92471 11.3774 4.92542C11.5709 4.92614 11.7562 5.0037 11.8925 5.14104C12.0288 5.27837 12.105 5.46424 12.1043 5.65774C12.1036 5.85125 12.026 6.03655 11.8887 6.17287C11.7513 6.30919 11.5655 6.38537 11.3719 6.38465Z" fill="#95E1D3"/>
</svg>
