<svg width="17" height="18" viewBox="0 0 17 18" fill="none" xmlns="http://www.w3.org/2000/svg">
<path d="M8.12592 13.6452H8.11238C8.07042 13.6452 3.8721 13.6371 2.81287 13.3495C2.52667 13.2724 2.26574 13.1214 2.05621 12.9118C1.84668 12.7021 1.6959 12.4411 1.61896 12.1549C1.42849 11.0803 1.33651 9.99064 1.34417 8.89937C1.33925 7.80631 1.43372 6.71507 1.6264 5.63912C1.70552 5.3524 1.857 5.09083 2.0663 4.87951C2.27561 4.66818 2.53572 4.51421 2.82167 4.43235C3.85179 4.16162 7.93438 4.16162 8.10764 4.16162H8.12186C8.16449 4.16162 12.3736 4.16974 13.422 4.45739C14.0034 4.61509 14.4576 5.06924 14.6146 5.65063C14.8109 6.72948 14.9036 7.8239 14.8901 8.92035C14.8948 10.0121 14.8001 11.102 14.6072 12.1765C14.5292 12.4625 14.3778 12.723 14.168 12.9324C13.9582 13.1417 13.6973 13.2925 13.4112 13.3698C12.3824 13.6425 8.29918 13.6452 8.12592 13.6452ZM6.77227 6.87229L6.76889 10.9332L10.2965 8.90275L6.77227 6.87229Z" fill="#95E1D3"/>
</svg>
