<svg width="69" height="69" viewBox="0 0 69 69" fill="none" xmlns="http://www.w3.org/2000/svg">
<path d="M37.7934 57.4075C33.9488 57.411 30.1596 56.4903 26.7452 54.7232C26.5801 54.6379 26.4334 54.5208 26.3135 54.3788C26.1936 54.2367 26.1029 54.0725 26.0465 53.8954C25.9901 53.7183 25.9691 53.5318 25.9847 53.3466C26.0004 53.1614 26.0524 52.981 26.1377 52.8159C26.2231 52.6508 26.3401 52.5041 26.4821 52.3842C26.6242 52.2643 26.7884 52.1736 26.9656 52.1171C27.1427 52.0607 27.3291 52.0398 27.5144 52.0554C27.6996 52.0711 27.8799 52.1231 28.045 52.2084C32.6183 54.535 37.8789 55.1282 42.8554 53.8784C47.8319 52.6286 52.1881 49.6203 55.1194 45.409C58.0508 41.1978 59.3593 36.068 58.8033 30.9672C58.2473 25.8664 55.8643 21.1391 52.0945 17.6583C48.3247 14.1775 43.4226 12.1783 38.2937 12.0301C33.1648 11.8818 28.1555 13.5945 24.191 16.8517C20.2264 20.109 17.5744 24.6908 16.7247 29.751C15.8749 34.8112 16.885 40.0079 19.5682 44.3815C19.7575 44.7051 19.8132 45.0897 19.7235 45.4537C19.6338 45.8178 19.4058 46.1325 19.0878 46.3311C18.9285 46.4286 18.7515 46.4934 18.567 46.522C18.3825 46.5506 18.1941 46.5423 18.0128 46.4976C17.8315 46.4529 17.6609 46.3728 17.5107 46.2618C17.3606 46.1507 17.234 46.0111 17.1382 45.8508C14.0374 40.8853 12.8569 34.9582 13.8186 29.1836C14.7804 23.4089 17.8181 18.1844 22.3609 14.4919C26.9036 10.7993 32.6386 8.89313 38.4879 9.13151C44.3373 9.36988 49.8981 11.7364 54.1254 15.7863C57.3899 18.8121 59.7494 22.6856 60.9404 26.9744C62.1315 31.2632 62.1073 35.7987 60.8706 40.0746C59.6338 44.3504 57.2332 48.1985 53.9365 51.1893C50.6399 54.1801 46.577 56.196 42.2013 57.0119C40.7477 57.2824 39.2719 57.4149 37.7934 57.4075Z" fill="#95E1D3"/>
<path d="M15.8667 58.8768C15.3189 58.8665 14.7822 58.7214 14.3039 58.4542C13.8256 58.1871 13.4205 57.8063 13.1244 57.3454C12.8282 56.8844 12.6503 56.3577 12.6062 55.8116C12.5621 55.2656 12.6532 54.7171 12.8715 54.2146L17.1664 44.551C17.3263 44.2085 17.6143 43.9425 17.9685 43.8104C18.3226 43.6783 18.7144 43.6906 19.0596 43.8446C19.4001 43.9988 19.6656 44.2816 19.798 44.6312C19.9304 44.9807 19.9189 45.3684 19.766 45.7095L15.4428 55.3731C15.3878 55.4465 15.358 55.5357 15.358 55.6274C15.358 55.7191 15.3878 55.8083 15.4428 55.8817C15.5045 55.9523 15.5856 56.0034 15.676 56.0285C15.7664 56.0536 15.8621 56.0517 15.9514 56.023L26.83 52.1519C27.0041 52.0849 27.1899 52.0538 27.3763 52.0604C27.5628 52.0671 27.7459 52.1113 27.9148 52.1905C28.0837 52.2696 28.2349 52.3821 28.3592 52.5212C28.4835 52.6602 28.5785 52.8229 28.6384 52.9996C28.7656 53.3518 28.7478 53.7401 28.5889 54.0792C28.4299 54.4183 28.1428 54.6804 27.7907 54.808L16.9969 58.6791C16.6353 58.8133 16.2523 58.8803 15.8667 58.8768Z" fill="#95E1D3"/>
</svg>
