<svg width="42" height="42" viewBox="0 0 42 42" fill="none" xmlns="http://www.w3.org/2000/svg">
<path d="M20.6851 20.2645C19.5568 20.2645 18.4538 19.9299 17.5156 19.303C16.5774 18.6762 15.8462 17.7852 15.4144 16.7427C14.9826 15.7003 14.8696 14.5532 15.0897 13.4465C15.3099 12.3398 15.8532 11.3233 16.6511 10.5255C17.4489 9.72759 18.4655 9.18424 19.5721 8.96411C20.6788 8.74399 21.8259 8.85696 22.8683 9.28876C23.9108 9.72056 24.8018 10.4518 25.4286 11.39C26.0555 12.3281 26.3901 13.4312 26.3901 14.5595C26.3901 16.0726 25.789 17.5236 24.7191 18.5935C23.6493 19.6634 22.1982 20.2645 20.6851 20.2645ZM20.6851 10.6045C19.9029 10.6045 19.1382 10.8365 18.4878 11.271C17.8374 11.7056 17.3305 12.3233 17.0312 13.046C16.7318 13.7687 16.6535 14.5639 16.8061 15.3311C16.9587 16.0983 17.3354 16.803 17.8885 17.3561C18.4416 17.9092 19.1463 18.2859 19.9135 18.4385C20.6807 18.5911 21.4759 18.5128 22.1986 18.2134C22.9213 17.9141 23.539 17.4072 23.9736 16.7568C24.4081 16.1064 24.6401 15.3417 24.6401 14.5595C24.6401 13.5106 24.2234 12.5046 23.4817 11.7629C22.74 11.0212 21.734 10.6045 20.6851 10.6045Z" fill="#F38281"/>
<path d="M30.5551 17.3946H30.4151C30.2002 17.3406 30.0131 17.2085 29.8902 17.0242C29.7673 16.8398 29.7173 16.6163 29.7501 16.3971V16.1171C29.7559 15.9947 29.7559 15.8721 29.7501 15.7496C29.7673 15.5692 29.7673 15.3876 29.7501 15.2071C29.7501 14.7521 29.7501 14.5246 29.7501 14.5246C29.7501 12.1715 28.8153 9.91476 27.1514 8.25084C25.4875 6.58693 23.2307 5.65215 20.8776 5.65215C18.5245 5.65215 16.2677 6.58693 14.6038 8.25084C12.9399 9.91476 12.0051 12.1715 12.0051 14.5246C12.0051 14.5246 12.0051 14.7521 12.0051 15.0846C12.0539 15.3171 12.1364 15.5411 12.2501 15.7496V16.1871V16.4671C12.2673 16.5821 12.2618 16.6992 12.2337 16.812C12.2057 16.9247 12.1557 17.0309 12.0866 17.1243C12.0176 17.2177 11.9308 17.2967 11.8312 17.3566C11.7316 17.4165 11.6213 17.4562 11.5063 17.4734C11.3914 17.4906 11.2743 17.4851 11.1615 17.457C11.0488 17.429 10.9426 17.379 10.8492 17.3099C10.7557 17.2409 10.6768 17.1541 10.6169 17.0545C10.557 16.9549 10.5173 16.8446 10.5001 16.7296V16.0996C10.4697 15.8146 10.4697 15.5272 10.5001 15.2421V14.6996C10.5001 11.8824 11.6192 9.18051 13.6114 7.18841C15.6035 5.1963 18.3053 4.07715 21.1226 4.07715C23.9399 4.07715 26.6417 5.1963 28.6338 7.18841C30.6259 9.18051 31.7451 11.8824 31.7451 14.6996C31.7451 14.6996 31.7451 14.9971 31.7451 15.3471C31.7419 15.635 31.7126 15.9221 31.6576 16.2046L31.5001 16.6596C31.4695 16.8812 31.3536 17.082 31.1771 17.2194C31.0006 17.3567 30.7774 17.4196 30.5551 17.3946Z" fill="#F38281"/>
<path d="M21.0001 38.0618C20.8853 38.0632 20.7715 38.0406 20.666 37.9954C20.5605 37.9502 20.4657 37.8834 20.3876 37.7993C11.1126 28.5243 10.5001 15.1543 10.3776 14.5943C10.3729 14.4794 10.3909 14.3647 10.4306 14.2567C10.4703 14.1487 10.5309 14.0497 10.6089 13.9652C10.6869 13.8806 10.7808 13.8123 10.8853 13.7641C10.9897 13.7159 11.1026 13.6888 11.2176 13.6843C11.3325 13.6796 11.4472 13.6976 11.5552 13.7373C11.6631 13.777 11.7622 13.8376 11.8467 13.9156C11.9312 13.9937 11.9996 14.0876 12.0477 14.192C12.0959 14.2965 12.1231 14.4094 12.1276 14.5243C12.1276 14.6468 12.8451 27.7893 21.6126 36.5743C21.6963 36.6529 21.763 36.7478 21.8086 36.8531C21.8542 36.9585 21.8777 37.072 21.8777 37.1868C21.8777 37.3016 21.8542 37.4152 21.8086 37.5205C21.763 37.6259 21.6963 37.7208 21.6126 37.7993C21.5344 37.8834 21.4396 37.9502 21.3341 37.9954C21.2286 38.0406 21.1148 38.0632 21.0001 38.0618Z" fill="#F38281"/>
<path d="M21.0001 38.0623C20.8853 38.0637 20.7716 38.041 20.6661 37.9958C20.5606 37.9506 20.4657 37.8838 20.3876 37.7998C20.3039 37.7212 20.2372 37.6263 20.1916 37.521C20.146 37.4156 20.1224 37.3021 20.1224 37.1873C20.1224 37.0725 20.146 36.9589 20.1916 36.8535C20.2372 36.7482 20.3039 36.6533 20.3876 36.5748C29.1376 27.8248 29.8551 14.6473 29.8726 14.5248C29.8664 14.4067 29.8863 14.2887 29.9309 14.1792C29.9755 14.0697 30.0436 13.9714 30.1305 13.8912C30.2173 13.811 30.3208 13.751 30.4335 13.7153C30.5462 13.6796 30.6654 13.6692 30.7826 13.6848C31.0131 13.6983 31.2295 13.8007 31.3861 13.9704C31.5428 14.1401 31.6275 14.3639 31.6226 14.5948C31.6226 15.1548 30.8876 28.5948 21.6126 37.7998C21.5345 37.8838 21.4396 37.9506 21.3341 37.9958C21.2286 38.041 21.1149 38.0637 21.0001 38.0623Z" fill="#F38281"/>
</svg>
