<?xml version="1.0" standalone="no"?>
<!DOCTYPE svg PUBLIC "-//W3C//DTD SVG 1.1//EN" "http://www.w3.org/Graphics/SVG/1.1/DTD/svg11.dtd" >
<svg xmlns="http://www.w3.org/2000/svg">
<metadata>Generated by IcoMoon</metadata>
<defs>
<font id="mogo-icons" horiz-adv-x="1024">
<font-face units-per-em="1024" ascent="960" descent="-64" />
<missing-glyph horiz-adv-x="1024" />
<glyph unicode="&#x20;" horiz-adv-x="512" d="" />
<glyph unicode="&#xe900;" glyph-name="aim" d="M511.416 52.598c-79.3 0-156.819 23.516-222.754 67.572s-117.325 106.675-147.671 179.939c-30.347 73.262-38.287 153.88-22.816 231.654 15.471 77.776 53.657 149.217 109.73 205.292 56.074 56.073 127.515 94.259 205.292 109.73 77.775 15.471 158.392 7.53 231.654-22.816 73.264-30.347 135.883-81.737 179.939-147.673 44.056-65.934 67.572-143.452 67.572-222.752-0.113-106.303-42.39-208.22-117.559-283.387-75.167-75.168-177.084-117.446-283.387-117.559zM511.416 812.284c-70.953 0-140.312-21.040-199.306-60.459s-104.975-95.445-132.127-160.997c-27.152-65.551-34.257-137.682-20.414-207.271s48.010-133.511 98.179-183.68c50.171-50.171 114.092-84.338 183.682-98.181 69.589-13.841 141.72-6.736 207.271 20.415 65.551 27.153 121.578 73.132 160.997 132.127 39.419 58.996 60.459 128.353 60.459 199.306-0.111 95.109-37.943 186.291-105.196 253.544s-158.435 105.085-253.544 105.196zM511.416 233.656c-43.489 0-86.002 12.897-122.163 37.059-36.159 24.161-64.343 58.503-80.986 98.681-16.642 40.18-20.997 84.391-12.512 127.044 8.484 42.655 29.426 81.835 60.177 112.587 30.752 30.751 69.932 51.693 112.585 60.177 42.655 8.486 86.866 4.13 127.046-12.512 40.178-16.643 74.52-44.827 98.681-80.986 24.161-36.161 37.059-78.674 37.059-122.163-0.113-58.283-23.315-114.147-64.527-155.36s-97.077-64.415-155.36-64.527zM511.416 631.226c-35.142 0-69.495-10.421-98.715-29.945s-51.994-47.275-65.442-79.742c-13.449-32.466-16.966-68.192-10.11-102.659s23.777-66.127 48.628-90.976c24.849-24.849 56.508-41.772 90.976-48.628 34.466-6.856 70.192-3.337 102.659 10.11 32.468 13.449 60.218 36.222 79.742 65.442s29.943 63.573 29.943 98.715c-0.111 47.090-18.867 92.22-52.164 125.517-33.297 33.299-78.426 52.053-125.517 52.166zM891.259 432.44h-759.686c-5.597 0-10.964 2.224-14.922 6.182s-6.181 9.325-6.181 14.921c0 5.596 2.223 10.964 6.181 14.921s9.325 6.182 14.922 6.182h759.686c5.596 0 10.964-2.224 14.921-6.182s6.182-9.325 6.182-14.921c0-5.596-2.224-10.964-6.182-14.921s-9.325-6.182-14.921-6.182zM511.416 52.598c-5.598 0-10.965 2.224-14.921 6.182-3.958 3.958-6.182 9.325-6.182 14.921v759.685c0 5.597 2.224 10.964 6.182 14.922 3.956 3.958 9.324 6.181 14.921 6.181s10.964-2.223 14.921-6.181 6.18-9.325 6.18-14.922v-759.685c0-5.596-2.222-10.964-6.18-14.921s-9.325-6.182-14.921-6.182z" />
<glyph unicode="&#xe901;" glyph-name="basket" d="M685.164 325.575h-161.645c-5.116 0-10.023 2.031-13.64 5.649s-5.65 8.522-5.65 13.636c0 5.12 2.033 10.024 5.65 13.642s8.524 5.649 13.64 5.649h161.645c5.114 0 10.024-2.031 13.642-5.649s5.649-8.522 5.649-13.642c0-5.114-2.031-10.018-5.649-13.636s-8.528-5.649-13.642-5.649zM793.958 337.539c-2.281-0.54-4.659-0.54-6.94 0-2.378 0.853-4.562 2.179-6.417 3.897-1.86 1.712-3.351 3.783-4.398 6.081-1.041 2.304-1.61 4.79-1.678 7.316-0.063 2.532 0.381 5.040 1.303 7.396l91.819 245.362c1.815 4.738 5.427 8.568 10.047 10.662 4.625 2.094 9.882 2.283 14.643 0.526 4.773-1.902 8.636-5.564 10.786-10.23 2.156-4.665 2.435-9.98 0.785-14.847l-91.813-244.205c-1.559-3.521-4.096-6.525-7.31-8.647s-6.975-3.271-10.826-3.311v0zM400.067 330.206c-4.025-0.028-7.954 1.229-11.216 3.584-3.261 2.361-5.684 5.7-6.917 9.535l-121.137 368.041h-115.737c-5.116 0-10.022 2.033-13.64 5.65s-5.65 8.524-5.65 13.64c0.098 5.085 2.162 9.935 5.759 13.53s8.445 5.66 13.53 5.759h129.625c3.997-0.085 7.873-1.386 11.113-3.73s5.688-5.618 7.020-9.387l126.925-381.158c0.845-2.384 1.205-4.904 1.059-7.424s-0.796-4.989-1.91-7.253c-1.115-2.264-2.672-4.284-4.58-5.939s-4.128-2.907-6.529-3.692c-2.451-0.961-5.089-1.36-7.716-1.155v0zM459.48 156.598c-22.891 0-45.268 6.787-64.3 19.502-19.033 12.72-33.867 30.794-42.627 51.94-8.76 21.151-11.052 44.425-6.586 66.873s15.489 43.071 31.675 59.261c16.186 16.185 36.809 27.204 59.259 31.67s45.722 2.179 66.869-6.582c21.148-8.761 39.224-23.598 51.941-42.627 12.718-19.035 19.505-41.409 19.505-64.302 0-30.697-12.194-60.132-33.898-81.84-21.705-21.703-51.143-33.894-81.838-33.894v0zM459.48 349.491c-15.26 0-30.178-4.528-42.867-13.005s-22.578-20.526-28.418-34.628c-5.84-14.097-7.368-29.611-4.391-44.578s10.325-28.718 21.116-39.504c10.791-10.792 24.539-18.142 39.506-21.117 14.967-2.981 30.481-1.451 44.58 4.386 14.099 5.842 26.149 15.73 34.627 28.422 8.478 12.686 13.004 27.602 13.004 42.866 0 20.463-8.129 40.090-22.599 54.556-14.47 14.473-34.095 22.602-54.559 22.602zM749.204 156.598c-22.886 0-45.266 6.787-64.296 19.502-19.035 12.72-33.872 30.794-42.627 51.94-8.761 21.151-11.054 44.425-6.588 66.873s15.485 43.071 31.676 59.261c16.185 16.185 36.807 27.204 59.255 31.67 22.454 4.466 45.722 2.179 66.873-6.582 21.146-8.761 39.225-23.598 51.94-42.627 12.72-19.035 19.507-41.409 19.507-64.302 0-30.697-12.197-60.132-33.9-81.84-21.703-21.703-51.143-33.894-81.84-33.894v0zM749.204 349.491c-15.258 0-30.174-4.528-42.866-13.005-12.686-8.476-22.579-20.526-28.416-34.628-5.842-14.097-7.367-29.611-4.392-44.578s10.325-28.718 21.117-39.504c10.792-10.792 24.536-18.142 39.504-21.117 14.967-2.981 30.481-1.451 44.584 4.386 14.097 5.842 26.146 15.73 34.623 28.422 8.482 12.686 13.005 27.602 13.005 42.866 0 20.463-8.129 40.090-22.596 54.556-14.473 14.473-34.099 22.602-54.562 22.602z" />
<glyph unicode="&#xe902;" glyph-name="blocks" d="M390.676 491.879h-207.565c-18.425 0-36.102 7.291-49.169 20.28s-20.463 30.623-20.573 49.046v207.565c0.109 18.464 7.492 36.139 20.547 49.195s30.731 20.438 49.195 20.547h207.565c18.462-0.109 36.139-7.492 49.194-20.547s20.438-30.731 20.547-49.195v-207.565c-0.111-18.424-7.505-36.057-20.574-49.046-13.067-12.99-30.744-20.28-49.167-20.28zM183.111 797.414c-7.454-0.107-14.572-3.116-19.842-8.387-5.271-5.269-8.279-12.389-8.387-19.842v-207.563c0-7.487 2.974-14.667 8.268-19.961s12.474-8.268 19.961-8.268h207.565c7.485 0 14.667 2.973 19.96 8.268 5.295 5.295 8.268 12.474 8.268 19.961v207.563c-0.106 7.453-3.116 14.573-8.385 19.842-5.271 5.272-12.39 8.28-19.842 8.387h-207.565zM834.864 491.881h-207.565c-18.497 0-36.236 7.348-49.315 20.426s-20.426 30.819-20.426 49.315v207.565c0.109 18.462 7.49 36.139 20.547 49.194 13.055 13.055 30.73 20.438 49.194 20.547h207.565c18.462-0.109 36.139-7.492 49.194-20.547s20.438-30.732 20.547-49.194v-207.565c0-18.496-7.348-36.236-20.426-49.315-13.080-13.079-30.819-20.426-49.315-20.426zM627.299 797.415c-7.453-0.107-14.571-3.116-19.842-8.387s-8.279-12.389-8.387-19.842v-207.565c0-7.487 2.975-14.667 8.268-19.96 5.295-5.295 12.474-8.269 19.961-8.269h207.565c7.487 0 14.667 2.975 19.96 8.269 5.295 5.293 8.269 12.473 8.269 19.96v207.565c-0.107 7.453-3.116 14.571-8.387 19.842s-12.389 8.279-19.842 8.387h-207.565zM390.676 62.222h-207.565c-18.463 0.109-36.139 7.492-49.195 20.547s-20.438 30.732-20.547 49.194v207.565c0.11 18.424 7.506 36.057 20.573 49.046s30.744 20.28 49.169 20.28h207.565c18.496 0 36.234-7.348 49.313-20.426 13.080-13.080 20.428-30.819 20.428-49.315v-207.565c-0.218-18.392-7.648-35.961-20.692-48.927-13.045-12.966-30.658-20.292-49.050-20.399zM183.111 367.342c-7.487 0-14.667-2.975-19.961-8.269s-8.268-12.474-8.268-19.96v-207.565c0.107-7.453 3.116-14.571 8.387-19.842s12.389-8.279 19.842-8.387h207.565c7.452 0.107 14.571 3.116 19.842 8.387 5.269 5.271 8.279 12.389 8.385 19.842v207.565c0 7.485-2.973 14.667-8.268 19.96-5.293 5.295-12.474 8.269-19.96 8.269h-207.565zM834.864 62.222h-207.565c-18.464 0.109-36.139 7.492-49.194 20.547-13.057 13.055-20.438 30.732-20.547 49.194v207.565c0.109 18.424 7.505 36.057 20.572 49.046s30.744 20.28 49.169 20.28h207.565c18.496 0 36.234-7.348 49.315-20.426 13.079-13.080 20.426-30.819 20.426-49.315v-207.565c-0.217-18.392-7.648-35.961-20.692-48.927s-30.658-20.292-49.050-20.399zM627.299 367.757c-7.487 0-14.667-2.975-19.961-8.268-5.293-5.295-8.268-12.474-8.268-19.961v-207.565c0.107-7.453 3.116-14.571 8.387-19.842s12.389-8.279 19.842-8.387h207.565c7.453 0.107 14.571 3.116 19.842 8.387s8.279 12.389 8.387 19.842v207.565c0 7.487-2.975 14.667-8.269 19.961s-12.473 8.268-19.96 8.268h-207.565z" />
<glyph unicode="&#xe903;" glyph-name="css" d="M741.062 73.701h-464.251c-39.177 0-76.749 15.563-104.451 43.264-27.703 27.703-43.266 65.275-43.266 104.451v464.253c0 39.177 15.563 76.749 43.266 104.452s65.275 43.265 104.451 43.265h464.251c39.178 0 76.751-15.563 104.453-43.265 27.701-27.703 43.264-65.275 43.264-104.452v-464.253c0-39.177-15.563-76.749-43.264-104.451-27.703-27.701-65.275-43.264-104.453-43.264zM276.811 791.181c-27.984 0-54.822-11.116-74.609-30.903s-30.904-46.624-30.904-74.609v-464.253c0-27.983 11.117-54.82 30.904-74.607 19.787-19.789 46.624-30.904 74.609-30.904h464.251c27.984 0 54.822 11.116 74.609 30.904s30.904 46.624 30.904 74.607v464.253c0 27.984-11.117 54.822-30.904 74.609s-46.624 30.903-74.609 30.903h-464.251zM150.196 250.537c-3.075-0.032-6.116 0.633-8.895 1.949-2.779 1.318-5.221 3.248-7.143 5.649-1.81 2.089-3.183 4.521-4.037 7.149s-1.173 5.403-0.937 8.156c0.236 2.755 1.022 5.434 2.311 7.88s3.056 4.606 5.195 6.357l198.362 165.866c30.083 24.946 68.828 36.954 107.747 33.396 38.919-3.56 74.842-22.398 99.901-52.39l47.268-56.554c8.974-10.813 20.026-19.715 32.5-26.184 12.476-6.467 26.121-10.366 40.129-11.469 14.008-1.101 28.095 0.618 41.428 5.055s25.639 11.503 36.193 20.78l113.531 99.181c4.284 3.623 9.813 5.431 15.411 5.036s10.82-2.959 14.554-7.148c1.833-2.062 3.238-4.471 4.125-7.084 0.889-2.613 1.246-5.378 1.050-8.132-0.198-2.753-0.944-5.439-2.195-7.9-1.251-2.459-2.982-4.646-5.091-6.426l-113.531-99.181c-14.795-13.076-32.068-23.045-50.794-29.312-18.726-6.269-38.519-8.706-58.206-7.171s-38.863 7.014-56.388 16.109c-17.527 9.095-33.046 21.622-45.635 36.833l-48.114 55.289c-8.832 10.624-19.674 19.403-31.903 25.832-12.23 6.431-25.607 10.385-39.366 11.639s-27.631-0.217-40.822-4.328c-13.189-4.113-25.44-10.786-36.048-19.639l-198.362-164.598c-3.538-2.712-7.793-4.326-12.239-4.644z" />
<glyph unicode="&#xe904;" glyph-name="gear" d="M505.153 19.719c-14.937-0.033-29.699 3.185-43.252 9.429-13.556 6.244-25.572 15.357-35.209 26.707l-36.338 41.062c-6.169 7.212-13.918 12.925-22.65 16.697-8.734 3.772-18.219 5.507-27.731 5.067l-55.335-4.926c-14.921-1.24-29.935 0.767-44 5.873s-26.843 13.196-37.45 23.704c-10.607 10.508-18.789 23.187-23.977 37.155-5.188 13.965-7.26 28.888-6.070 43.73l1.652 56.256c0.769 9.736-0.817 19.514-4.625 28.514-3.807 9.003-9.726 16.965-17.262 23.228l-41.295 35.727c-11.467 9.598-20.685 21.57-27.009 35.084-6.324 13.511-9.601 28.237-9.601 43.141 0 14.906 3.277 29.63 9.601 43.141 6.324 13.514 15.542 25.489 27.009 35.087l41.295 36.136c7.367 6.221 13.179 14.059 16.977 22.896s5.479 18.429 4.91 28.024l-4.129 56.256c-1.245 14.838 0.77 29.767 5.906 43.753s13.27 26.693 23.838 37.241c10.568 10.548 23.316 18.684 37.362 23.843s29.051 7.219 43.976 6.036l55.75-2.874c9.653-0.963 19.401 0.358 28.442 3.855s17.126 9.071 23.588 16.267l35.929 41.064c9.628 11.788 21.778 21.294 35.563 27.829s28.863 9.934 44.134 9.95c14.937 0.031 29.702-3.188 43.254-9.43s25.57-15.358 35.206-26.706l36.341-41.064c6.208-7.164 13.962-12.843 22.686-16.611s18.191-5.53 27.695-5.153l55.335 4.928c14.92 1.238 29.934-0.766 43.999-5.873s26.843-13.196 37.451-23.705c10.608-10.509 18.789-23.186 23.975-37.153 5.189-13.967 7.262-28.889 6.072-43.731l-1.652-56.257c-0.769-9.736 0.816-19.511 4.625-28.514 3.805-9 9.725-16.965 17.261-23.228l41.295-35.724c11.466-9.598 20.685-21.573 27.009-35.087 6.324-13.511 9.601-28.237 9.601-43.141s-3.277-29.63-9.601-43.141c-6.324-13.514-15.543-25.489-27.009-35.087l-41.295-36.136c-7.367-6.219-13.179-14.056-16.976-22.893-3.8-8.837-5.48-18.432-4.91-28.024l4.954-55.437c1.245-14.837-0.769-29.768-5.906-43.752-5.137-13.987-13.27-26.693-23.837-37.243-10.569-10.547-23.317-18.681-37.362-23.843-14.045-5.159-29.051-7.218-43.977-6.036l-56.575 2.054c-9.786 0.731-19.608-0.861-28.655-4.644-9.044-3.786-17.059-9.653-23.378-17.12l-35.926-41.062c-9.617-11.402-21.617-20.58-35.17-26.892s-28.326-9.609-43.29-9.656l-1.24 0.412zM344.103 159.747c14.937 0.030 29.702-3.188 43.254-9.429 13.553-6.244 25.57-15.36 35.206-26.707l36.341-41.065c5.74-6.864 12.938-12.374 21.081-16.138 8.139-3.764 17.018-5.685 25.996-5.626 9.014 0.075 17.909 2.054 26.098 5.804 8.186 3.753 15.479 9.194 21.391 15.961l35.926 41.065c10.412 12.581 23.751 22.445 38.862 28.744 15.111 6.296 31.539 8.834 47.857 7.392l55.75-4.107c8.928-0.819 17.931 0.34 26.356 3.393s16.066 7.926 22.373 14.264c6.338 6.385 11.209 14.059 14.272 22.495 3.066 8.438 4.254 17.436 3.484 26.372l-4.129 56.259c-1.511 16.215 0.927 32.555 7.11 47.638 6.18 15.080 15.922 28.459 28.404 39.006l41.295 36.136c6.947 5.541 12.581 12.532 16.506 20.48s6.044 16.658 6.205 25.511c-0.072 8.964-2.062 17.812-5.834 25.951-3.775 8.142-9.246 15.393-16.052 21.272l-41.295 35.727c-12.745 10.456-22.722 23.859-29.057 39.034-6.335 15.177-8.834 31.664-7.281 48.023l4.129 55.436c0.794 8.877-0.385 17.82-3.454 26.194s-7.951 15.974-14.303 22.262c-6.404 6.326-14.12 11.183-22.608 14.233s-17.544 4.219-26.533 3.424l-56.575-4.106c-16.318-1.608-32.782 0.768-47.967 6.923-15.183 6.154-28.628 15.901-39.167 28.392l-36.338 41.064c-5.571 6.908-12.604 12.512-20.596 16.415s-16.752 6.010-25.655 6.171c-9.014-0.073-17.909-2.052-26.098-5.804-8.186-3.752-15.479-9.192-21.391-15.96l-35.926-41.064c-10.539-12.647-24.020-22.548-39.275-28.844s-31.824-8.8-48.272-7.292l-55.747 4.106c-8.928 0.79-17.921-0.382-26.342-3.434s-16.064-7.907-22.387-14.223c-6.507-6.521-11.475-14.399-14.546-23.063s-4.168-17.898-3.211-27.036l4.129-55.025c1.511-16.218-0.928-32.558-7.109-47.638-6.182-15.083-15.924-28.462-28.404-39.009l-41.295-36.136c-6.946-5.541-12.582-12.532-16.507-20.48s-6.044-16.658-6.205-25.511c0.074-8.964 2.063-17.809 5.837-25.951s9.244-15.393 16.050-21.272l41.295-35.727c12.746-10.456 22.722-23.859 29.057-39.034s8.835-31.664 7.283-48.023l-4.129-55.434c-0.794-8.878 0.385-17.82 3.454-26.195s7.952-15.974 14.303-22.262c6.403-6.324 14.118-11.184 22.607-14.234s17.544-4.218 26.535-3.423l56.575 4.107h8.671zM505.153 303.469c-38.331 0-75.092 15.144-102.198 42.097s-42.333 63.51-42.333 101.628c0 38.118 15.227 74.675 42.333 101.628s63.867 42.097 102.198 42.097c38.334 0 75.095-15.144 102.201-42.097s42.333-63.51 42.333-101.628c0-38.118-15.227-74.675-42.333-101.628s-63.867-42.097-102.201-42.097zM505.153 549.855c-27.38 0-53.638-10.816-73-30.070-19.359-19.251-30.236-45.363-30.236-72.591s10.877-53.339 30.236-72.591c19.362-19.254 45.621-30.070 73-30.070 27.382 0 53.641 10.816 73 30.070 19.362 19.251 30.238 45.363 30.238 72.591s-10.877 53.339-30.238 72.591c-19.359 19.254-45.618 30.070-73 30.070z" />
<glyph unicode="&#xe905;" glyph-name="glasses" d="M505.153 24.227c-84.206 0-166.519 24.831-236.534 71.351s-124.584 112.643-156.808 190.002c-32.224 77.362-40.655 162.487-24.228 244.614 16.428 82.125 56.976 157.563 116.519 216.772s135.404 99.531 217.991 115.868c82.59 16.336 168.193 7.951 245.99-24.092s144.29-86.309 191.070-155.933c46.783-69.621 71.752-151.477 71.752-235.21-0.108-112.253-45.001-219.875-124.82-299.249s-188.048-124.015-300.931-124.123zM505.153 829.904c-76.036 0-150.367-22.422-213.593-64.43-63.223-42.009-112.5-101.718-141.598-171.574-29.099-69.859-36.712-146.728-21.878-220.888s51.45-142.281 105.218-195.747c53.767-53.467 122.269-89.877 196.847-104.628s151.879-7.182 222.131 21.756c70.249 28.935 130.294 77.937 172.538 140.806 42.244 62.871 64.792 136.787 64.792 212.4-0.219 101.326-40.791 198.443-112.845 270.091-72.054 71.65-169.713 111.998-271.612 112.215zM344.518 283.341c-22.462 0-44.417 6.623-63.092 19.033s-33.231 30.045-41.826 50.68c-8.595 20.635-10.844 43.34-6.462 65.245s15.197 42.028 31.079 57.82c15.881 15.795 36.117 26.549 58.144 30.905 22.030 4.359 44.862 2.123 65.613-6.426 20.751-8.546 38.486-23.021 50.965-41.591s19.138-40.404 19.138-62.738c0-14.831-2.936-29.516-8.643-43.216-5.707-13.702-14.073-26.151-24.618-36.637s-23.065-18.803-36.842-24.479c-13.777-5.674-28.545-8.596-43.456-8.596zM344.518 468.131c-14.38-0.008-28.431-4.279-40.357-12.269-11.925-7.993-21.18-19.34-26.585-32.591-5.403-13.251-6.709-27.803-3.749-41.796s10.050-26.79 20.365-36.753c10.315-9.963 23.383-16.641 37.534-19.176 14.151-2.538 28.744-0.819 41.907 4.937s24.302 15.285 31.988 27.368c7.686 12.086 11.574 26.176 11.162 40.47-0.108 19.024-7.755 37.24-21.285 50.694-13.528 13.453-31.846 21.061-50.979 21.166v-2.051zM665.791 283.341c-22.459 0-44.414 6.623-63.089 19.033s-33.23 30.045-41.826 50.68c-8.596 20.635-10.843 43.34-6.462 65.245s15.197 42.028 31.080 57.82c15.88 15.795 36.117 26.549 58.144 30.905 22.030 4.359 44.862 2.123 65.613-6.426 20.751-8.546 38.486-23.021 50.965-41.591s19.138-40.404 19.138-62.738c0-29.951-11.964-58.672-33.261-79.853-21.296-21.177-50.182-33.075-80.301-33.075zM665.791 468.131c-14.292 0-28.265-4.215-40.149-12.111-11.884-7.899-21.144-19.121-26.616-32.253-5.469-13.129-6.9-27.579-4.113-41.519 2.79-13.94 9.673-26.743 19.777-36.795 10.107-10.049 22.985-16.893 37.002-19.666s28.55-1.351 41.754 4.088c13.204 5.441 24.49 14.652 32.433 26.469 7.94 11.818 12.177 25.711 12.177 39.925 0.277 9.609-1.389 19.174-4.896 28.13-3.509 8.959-8.787 17.126-15.526 24.017s-14.798 12.368-23.704 16.107c-8.903 3.739-18.474 5.665-28.141 5.66v-2.051zM109.547 514.942c-4.76 0-9.374 1.636-13.061 4.627-3.688 2.995-6.221 7.162-7.174 11.798-0.986 5.328 0.141 10.824 3.143 15.341 3.003 4.519 7.648 7.705 12.962 8.889 4.542 0.819 451.356 97.322 571.524 261.577 1.597 2.189 3.612 4.042 5.928 5.455 2.319 1.412 4.896 2.355 7.58 2.775 2.687 0.42 5.43 0.308 8.070-0.329 2.643-0.637 5.134-1.787 7.329-3.383 4.353-3.272 7.262-8.098 8.109-13.46 0.85-5.362-0.432-10.842-3.567-15.285-129.666-176.986-576.892-273.488-596.3-277.592l-4.543-0.412zM794.22 583.11c-102.303 3.393-203.098 25.528-297.325 65.292-5.037 2.178-8.997 6.257-11.012 11.339-2.015 5.084-1.915 10.752 0.277 15.761 2.189 5.012 6.291 8.951 11.402 10.953s10.813 1.904 15.853-0.275c2.065 0 195.736-85.823 358.439-55.438 5.416 0.969 10.996-0.208 15.548-3.277s7.719-7.788 8.817-13.149c0.966-5.333-0.23-10.829-3.324-15.291-3.094-4.464-7.838-7.528-13.196-8.524-28.185-5.203-56.813-7.68-85.479-7.392zM572.878 377.79h-135.448c-5.477 0-10.727 2.161-14.599 6.014-3.875 3.85-6.050 9.072-6.050 14.519 0.108 5.411 2.316 10.572 6.166 14.4 3.85 3.83 9.039 6.025 14.483 6.13h135.448c5.444-0.105 10.633-2.3 14.483-6.13 3.85-3.828 6.058-8.989 6.166-14.4 0-5.447-2.178-10.669-6.050-14.519-3.872-3.852-9.122-6.014-14.599-6.014zM251.603 377.79h-148.249c-5.476 0-10.728 2.161-14.6 6.014-3.872 3.85-6.048 9.072-6.048 14.519 0.106 5.411 2.315 10.572 6.164 14.4 3.85 3.83 9.040 6.025 14.483 6.13h148.249c5.476 0 10.728-2.161 14.6-6.014 3.872-3.85 6.048-9.072 6.048-14.516 0-5.447-2.176-10.669-6.048-14.519-3.872-3.852-9.124-6.014-14.6-6.014zM907.369 377.79h-148.663c-5.477 0-10.73 2.161-14.602 6.014-3.872 3.85-6.047 9.072-6.047 14.519 0 5.444 2.175 10.666 6.047 14.516 3.872 3.852 9.125 6.014 14.602 6.014h148.663c5.474 0 10.727-2.161 14.599-6.014 3.872-3.85 6.047-9.072 6.047-14.516 0-5.447-2.175-10.669-6.047-14.519-3.872-3.852-9.125-6.014-14.599-6.014z" />
<glyph unicode="&#xe906;" glyph-name="map" d="M168.819 94.804c-4.367 0.020-8.628 1.341-12.239 3.797-3.096 1.737-5.693 4.241-7.541 7.272-1.848 3.029-2.885 6.485-3.011 10.032v590.867c-0.030 4.287 1.246 8.482 3.659 12.025s5.847 6.269 9.847 7.811l215.666 84.409c4.92 1.704 10.272 1.704 15.193 0l204.694-80.189 244.366 80.189c3.149 1.198 6.557 1.556 9.887 1.038s6.468-1.894 9.105-3.992c2.671-1.917 4.835-4.457 6.306-7.398s2.203-6.196 2.135-9.484v-590.866c0.031-4.403-1.343-8.702-3.924-12.269-2.582-3.569-6.234-6.219-10.426-7.567l-253.228-84.408c-4.637-1.678-9.714-1.678-14.35 0l-202.583 79.766-207.647-79.766c-1.91-0.669-3.895-1.096-5.91-1.266zM384.063 221.418c2.637 0.628 5.383 0.628 8.020 0l198.784-83.144 233.392 78.923v544.864l-223.684-73.438c-4.637-1.676-9.714-1.676-14.35 0l-203.849 79.768-194.142-74.281v-548.661l186.967 71.325c2.063 1.645 4.552 2.669 7.175 2.954l1.688 1.69zM382.375 177.524c-5.596 0-10.964 2.224-14.921 6.18-3.958 3.958-6.182 9.325-6.182 14.923v592.554c0 5.597 2.224 10.964 6.182 14.922s9.325 6.181 14.921 6.181c5.596 0 10.964-2.223 14.921-6.181s6.182-9.325 6.182-14.922v-590.866c0.232-2.91-0.14-5.837-1.096-8.595-0.956-2.76-2.473-5.289-4.456-7.431s-4.39-3.849-7.066-5.014c-2.678-1.164-5.567-1.761-8.486-1.751zM594.664 94.802c-5.596 0-10.964 2.224-14.921 6.182s-6.18 9.325-6.18 14.921v590.867c0 5.596 2.222 10.964 6.18 14.921s9.325 6.182 14.921 6.182c5.598 0 10.965-2.224 14.923-6.182 3.956-3.958 6.18-9.325 6.18-14.921v-590.867c0-5.596-2.224-10.964-6.18-14.921-3.958-3.958-9.325-6.182-14.923-6.182z" />
<glyph unicode="&#xe907;" glyph-name="mushroom" d="M437.637 219.972c-4.205-0.082-8.338 1.089-11.873 3.366-3.537 2.275-6.315 5.551-7.98 9.412-1.667 3.861-2.145 8.13-1.377 12.264 0.771 4.133 2.753 7.944 5.696 10.947s6.715 5.061 10.833 5.912 8.397 0.457 12.29-1.133c3.893-1.59 7.223-4.302 9.569-7.792s3.599-7.599 3.599-11.805c0.002-5.543-2.172-10.866-6.053-14.824-3.881-3.96-9.161-6.238-14.702-6.347zM589.989 219.972c11.464 0 20.757 9.293 20.757 20.757 0 11.462-9.293 20.755-20.757 20.755s-20.755-9.293-20.755-20.755c0-11.464 9.292-20.757 20.755-20.757zM600.782 56.827h-188.468c-48.885 0-95.766 19.419-130.332 53.985-34.568 34.566-53.987 81.448-53.987 130.332s19.419 95.766 53.987 130.332c34.566 34.566 81.447 53.985 130.332 53.985h188.468c48.883 0 95.766-19.419 130.332-53.985s53.985-81.448 53.985-130.332c0-48.883-19.419-95.766-53.985-130.332s-81.448-53.985-130.332-53.985zM412.314 383.948c-18.754 0-37.324-3.693-54.65-10.87s-33.068-17.697-46.328-30.957c-13.262-13.26-23.78-29.003-30.957-46.328s-10.87-35.895-10.87-54.65c0-18.753 3.693-37.322 10.87-54.648s17.695-33.068 30.957-46.33c13.26-13.26 29.003-23.779 46.328-30.955s35.895-10.871 54.65-10.871h188.468c37.875 0 74.196 15.046 100.978 41.826 26.78 26.782 41.826 63.104 41.826 100.978s-15.046 74.198-41.826 100.978c-26.782 26.782-63.104 41.826-100.978 41.826h-188.468zM838.651 323.339h-111.255c-5.504 0-10.784 2.187-14.677 6.080-3.891 3.893-6.079 9.172-6.079 14.677s2.187 10.784 6.079 14.677c3.893 3.893 9.172 6.080 14.677 6.080h111.255c20.005 0.107 39.159 8.103 53.303 22.249 14.146 14.145 22.142 33.298 22.251 53.303-0.111 95.9-38.227 187.849-106.001 255.7-67.772 67.851-159.677 106.073-255.577 106.293h-87.592c-95.972-0.11-187.983-38.284-255.846-106.146s-106.037-159.873-106.147-255.846c0.109-20.005 8.104-39.159 22.25-53.303 14.145-14.146 33.299-22.142 53.305-22.249h107.102c5.506 0 10.786-2.187 14.677-6.080 3.893-3.893 6.080-9.172 6.080-14.677s-2.187-10.784-6.080-14.677c-3.891-3.893-9.171-6.080-14.677-6.080h-109.179c-31.048 0-60.824 12.333-82.778 34.289-21.954 21.954-34.288 51.73-34.288 82.778 0.054 53.149 10.597 105.764 31.024 154.83s50.337 93.619 88.015 131.104c37.678 37.485 82.383 67.166 131.554 87.341 49.172 20.175 101.839 30.448 154.988 30.229h87.592c106.838-0.219 209.238-42.758 284.784-118.304 75.548-75.548 118.086-177.948 118.306-284.786 0-31.086-12.32-60.904-34.262-82.926-21.944-22.019-51.719-34.445-82.805-34.556zM139.99 436.671c-22.67 0.353-45.067 5.001-66.005 13.698-2.537 1.007-4.85 2.503-6.807 4.405s-3.521 4.17-4.6 6.676c-1.080 2.506-1.655 5.202-1.692 7.93s0.464 5.437 1.475 7.972c0.915 2.558 2.342 4.9 4.195 6.886s4.092 3.572 6.58 4.66c2.488 1.088 5.173 1.657 7.888 1.67s5.406-0.529 7.904-1.591c16.304-6.243 33.603-9.478 51.061-9.548 28.66 0.201 56.511 9.525 79.516 26.617 23.005 17.094 39.97 41.069 48.434 68.45 8.464 27.383 7.989 56.748-1.356 83.842-9.347 27.092-27.077 50.507-50.624 66.845-3.826 3.342-6.295 7.97-6.938 13.008s0.584 10.139 3.45 14.334c2.864 4.193 7.168 7.193 12.095 8.427 4.927 1.236 10.136 0.619 14.64-1.727 31.272-21.16 54.932-51.793 67.5-87.396 12.57-35.603 13.384-74.3 2.327-110.402-11.059-36.102-33.406-67.703-63.76-90.159-30.352-22.457-67.109-34.584-104.867-34.598h-0.415zM932.471 437.498c-64.87 4.908-125.507 34.082-169.825 81.707s-69.058 110.204-69.29 175.258c-0.087 31.373 5.684 62.488 17.020 91.744 1.006 2.536 2.503 4.85 4.405 6.807 1.9 1.957 4.17 3.521 6.676 4.6s5.201 1.655 7.928 1.692c2.73 0.037 5.439-0.464 7.974-1.475 2.557-0.915 4.9-2.342 6.886-4.195 1.984-1.853 3.571-4.092 4.658-6.58 1.089-2.488 1.659-5.172 1.672-7.888s-0.529-5.405-1.593-7.905c-11.576-31.296-15.754-64.844-12.207-98.024 3.547-33.178 14.722-65.086 32.652-93.228s42.128-51.752 70.701-68.986c28.573-17.233 60.745-27.621 94.002-30.352 5.504 0 10.784-2.187 14.677-6.080s6.079-9.172 6.079-14.677c0-5.504-2.186-10.784-6.079-14.677s-9.172-6.080-14.677-6.080l-1.66-1.66z" />
<glyph unicode="&#xe908;" glyph-name="people" d="M514.548 444.276c-44.366 0-87.736 13.157-124.627 37.806-36.887 24.646-65.641 59.682-82.619 100.671s-21.42 86.093-12.764 129.607c8.655 43.514 30.020 83.484 61.393 114.856s71.341 52.736 114.855 61.392c43.514 8.655 88.617 4.213 129.606-12.765 40.992-16.979 76.025-45.73 100.674-82.62s37.806-80.26 37.806-124.626c-0.108-59.46-23.777-116.456-65.823-158.501-42.045-42.043-99.038-65.712-158.501-65.82zM514.548 852.132c-36.299 0-71.782-10.764-101.967-30.931-30.182-20.167-53.704-48.832-67.596-82.368s-17.528-70.44-10.445-106.042c7.080-35.603 24.561-68.307 50.229-93.974s58.371-43.148 93.974-50.229c35.603-7.083 72.505-3.449 106.043 10.445 33.535 13.891 62.201 37.414 82.368 67.596s30.931 65.668 30.931 101.968c-0.108 48.644-19.479 95.264-53.874 129.66-34.398 34.396-81.019 53.768-129.662 53.875zM147.478 117.991c-5.408 0-10.595 2.147-14.42 5.971s-5.973 9.011-5.973 14.421c0.108 91.911 36.668 180.028 101.659 245.020 64.992 64.989 153.108 101.549 245.020 101.657h81.572c5.407 0 10.594-2.147 14.418-5.971 3.827-3.824 5.974-9.011 5.974-14.421s-2.147-10.594-5.974-14.421c-3.824-3.824-9.011-5.971-14.418-5.971h-81.572c-81.127 0-158.934-32.23-216.299-89.594-57.366-57.367-89.594-135.171-89.594-216.298 0-5.41-2.148-10.597-5.973-14.421s-9.011-5.971-14.42-5.971zM698.084-4.368c-5.41 0-10.594 2.15-14.421 5.974-3.824 3.824-5.971 9.011-5.971 14.418v326.287c0 5.407 2.147 10.594 5.971 14.418 3.827 3.827 9.011 5.974 14.421 5.974s10.597-2.147 14.421-5.974c3.824-3.824 5.971-9.011 5.971-14.418v-326.287c0-5.407-2.147-10.594-5.971-14.418s-9.011-5.974-14.421-5.974zM861.228 158.776h-326.287c-5.407 0-10.594 2.147-14.418 5.971s-5.974 9.011-5.974 14.421c0 5.41 2.15 10.597 5.974 14.421s9.011 5.971 14.418 5.971h326.287c5.407 0 10.594-2.147 14.418-5.971 3.827-3.824 5.974-9.011 5.974-14.421s-2.147-10.597-5.974-14.421c-3.824-3.824-9.011-5.971-14.418-5.971z" />
<glyph unicode="&#xe909;" glyph-name="s_dribble" d="M490.487 893.778c-243.035 0-440.041-197.007-440.041-440.041 0-243.037 197.006-440.044 440.041-440.044 243.032 0 440.038 197.006 440.038 440.044 0 243.034-197.006 440.041-440.038 440.041zM490.487 830.016c95.863 0 183.367-35.863 249.813-94.873-48.822-64.4-122.994-107.282-197.316-136.302-42.074 76.625-89.227 150.351-141.144 220.681 29.036 6.999 58.801 10.522 88.668 10.495h-0.022zM330.4 794.373c49.064-73.399 96.589-141.451 139.999-218.481-109.79-28.448-233.86-45.522-348.468-45.808 24.158 117.227 102.903 214.564 208.469 264.267v0.022zM782.034 691.623c54.374-66.445 84.287-149.544 84.73-235.4-87.040 17.162-173.596 21.65-261.734 12.761-9.902 24.709-21.914 48.184-33.422 73.487 75.975 30.649 157.206 83.102 210.426 149.174v-0.022zM500.96 517.675c9.417-20.022 20.33-41.276 30.583-62.992-122.551-54.037-252.914-126.246-320.57-252.847-64.949 71.873-99.564 166.098-96.589 262.923 131.242 0.616 260.064 17.030 386.576 52.915zM699.813 415.079c54.761-0.012 109.295-7.036 162.27-20.902-8.169-50.96-26.738-99.697-54.545-143.177s-64.267-80.771-107.105-109.562c-20.201 91.858-39.452 179.758-73.489 268.384 24.127 3.515 48.469 5.28 72.846 5.28l0.023-0.022zM864.040 408.259c-0.267-2.157-0.506-4.268-0.814-6.381 0.307 2.134 0.569 4.246 0.814 6.381zM557.33 392.637c34.675-89.613 61.895-188.844 80.156-285.413-46.488-19.723-96.479-29.855-146.976-29.787-83.655-0.119-164.943 27.762-230.911 79.206 68.14 110.535 173.685 194.19 297.71 235.971l0.022 0.022z" />
<glyph unicode="&#xe90a;" glyph-name="s_facebook" d="M544.277 107.321v315.576h106.464l15.826 123.558h-122.29v78.702c0 35.654 9.934 60.066 61.106 60.066h64.842v110.159c-31.551 3.381-63.26 5.014-94.991 4.89-94.103 0-158.712-57.448-158.712-162.909v-90.676h-105.77v-123.558h106v-315.808h127.524z" />
<glyph unicode="&#xe90b;" glyph-name="s_instagram" d="M490.565 105.631c-94.719 0-105.885 0.501-142.849 2.116-28.825 0.95-57.277 6.81-84.13 17.328-22.98 8.943-43.849 22.568-61.282 40.004-17.433 17.442-31.049 38.315-39.983 61.298-10.115 26.954-15.57 55.427-16.133 84.207-2.156 36.887-2.156 48.981-2.156 142.966 0 94.989 0.501 106.078 2.156 142.849 0.575 28.742 6.030 57.178 16.133 84.092 8.924 23.012 22.549 43.91 40.005 61.36s38.36 31.066 61.375 39.982c26.9 10.158 55.343 15.627 84.091 16.172 36.771 2.079 48.861 2.079 142.772 2.079 95.489 0 106.462-0.5 142.847-2.079 28.803-0.539 57.372-6.007 84.326-16.172 23.006-8.925 43.907-22.546 61.36-39.994s31.084-38.341 40.016-61.347c10.28-27.337 15.787-56.215 16.213-85.362 2.156-36.887 2.156-48.938 2.156-142.887s-0.54-106.272-2.156-142.732c-0.58-28.809-6.047-57.31-16.174-84.287-8.954-23-22.596-43.884-40.055-61.332-17.459-17.442-38.354-31.067-61.36-40.010-26.954-10.086-55.41-15.553-84.173-16.134-36.77-2.116-48.821-2.116-143.001-2.116zM489.256 739.132c-94.18 0-103.96-0.462-140.731-2.118-21.96-0.287-43.709-4.337-64.301-11.975-15.019-5.757-28.665-14.597-40.058-25.95s-20.281-24.969-26.091-39.968c-7.7-20.792-11.744-42.778-11.975-64.955-2.041-37.31-2.041-47.090-2.041-140.616 0-92.409 0.346-103.616 2.041-140.69 0.346-21.948 4.39-43.702 11.975-64.302 11.782-30.305 35.809-54.255 66.188-65.883 20.565-7.686 42.309-11.736 64.262-11.975 37.272-2.156 47.090-2.156 140.731-2.156 94.449 0 104.229 0.466 140.692 2.156 21.965 0.267 43.713 4.318 64.302 11.975 14.939 5.803 28.507 14.649 39.839 25.975 11.338 11.332 20.19 24.895 26.004 39.828 7.697 20.793 11.742 42.82 11.969 64.996h0.427c1.655 36.807 1.655 46.626 1.655 140.692 0 94.065-0.427 103.96-2.082 140.731-0.347 21.929-4.392 43.642-11.969 64.224-5.797 14.957-14.649 28.543-25.981 39.892-11.338 11.349-24.912 20.213-39.862 26.027-20.599 7.7-42.354 11.705-64.302 11.975-37.233 2.118-46.974 2.118-140.692 2.118zM490.565 275.701c-35.209-0.023-69.634 10.399-98.92 29.941-29.287 19.547-52.12 47.337-65.611 79.855-13.492 32.523-17.035 68.314-10.183 102.85s23.792 66.264 48.678 91.171c24.885 24.907 56.599 41.875 91.129 48.757s70.324 3.37 102.857-10.094c32.533-13.463 60.34-36.272 79.91-65.542s30.020-63.685 30.026-98.894c-0.063-47.174-18.819-92.402-52.161-125.773-33.34-33.371-78.55-52.167-125.724-52.27zM490.565 569.331c-22.846 0-45.179-6.775-64.175-19.467s-33.801-30.733-42.544-51.839c-8.743-21.107-11.030-44.332-6.573-66.739s15.458-42.99 31.613-59.141c16.155-16.156 36.737-27.159 59.143-31.613 22.407-4.46 45.632-2.173 66.739 6.571s39.148 23.546 51.84 42.542c12.693 18.999 19.469 41.331 19.469 64.177-0.074 30.614-12.266 59.953-33.913 81.6s-50.986 33.84-81.6 33.911zM675.379 596.784c-5.45 0.020-10.843 1.114-15.872 3.218-5.023 2.105-9.591 5.179-13.431 9.048-7.754 7.813-12.089 18.386-12.049 29.395 0.046 11.009 4.454 21.55 12.271 29.305 7.811 7.755 18.386 12.089 29.394 12.048s21.55-4.453 29.303-12.266c7.754-7.813 12.089-18.386 12.049-29.394s-4.454-21.55-12.265-29.305c-7.817-7.755-18.386-12.089-29.4-12.048z" />
<glyph unicode="&#xe90c;" glyph-name="s_linkedin" d="M528.992 107.213h-154.015v462.044h154.015v-77.008c16.213 20.628 36.791 37.411 60.257 49.147 23.468 11.737 49.238 18.134 75.47 18.735 45.87-0.255 89.771-18.691 122.072-51.265s50.364-76.629 50.227-122.499v-279.154h-154.010v259.897c-2.981 20.81-13.375 39.843-29.275 53.597-15.895 13.753-36.227 21.302-57.245 21.257-9.408-0.298-18.659-2.493-27.198-6.453s-16.189-9.606-22.493-16.596c-6.303-6.991-11.13-15.183-14.189-24.084s-4.29-18.328-3.616-27.721v-259.897zM297.97 107.213h-154.015v462.044h154.015v-462.044zM220.963 646.263c-20.424 0-40.011 8.113-54.452 22.555s-22.555 34.029-22.555 54.452c0 20.424 8.113 40.011 22.555 54.452s34.029 22.555 54.452 22.555c20.423 0 40.011-8.113 54.452-22.555s22.555-34.029 22.555-54.452c0-20.424-8.113-40.011-22.555-54.452s-34.029-22.555-54.452-22.555z" />
<glyph unicode="&#xe90d;" glyph-name="s_pinterest" d="M439.278 334.478c-19.483-104.96-43.201-205.608-113.585-258.167-21.678 158.635 31.92 277.806 56.793 404.291-42.431 73.541 5.121 221.588 94.603 185.125 110.12-44.895-95.373-273.452 42.585-302.024 144.043-29.798 202.878 257.322 113.545 350.731-129.062 134.801-375.678 3.042-345.337-189.976 7.393-47.206 54.714-61.529 18.905-126.677-82.59 18.905-107.232 85.978-104.037 175.423 5.082 146.314 127.717 248.81 250.697 262.98 155.554 17.943 301.52-58.795 321.658-209.46 22.716-170.032-70.19-354.236-236.488-340.946-45.088 3.578-64.031 26.567-99.339 48.703z" />
<glyph unicode="&#xe90e;" glyph-name="s_tiktok" d="M667.602 691.698c0 0 19.638-19.252 0 0-26.317 30.047-40.823 68.635-40.812 108.58h-118.976v-477.445c-0.918-25.839-11.825-50.307-30.427-68.267-18.601-17.954-43.444-27.989-69.297-27.995-54.675 0-100.109 44.669-100.109 100.113 0 66.225 63.916 115.895 129.757 95.488v121.671c-132.837 17.712-249.118-85.478-249.118-217.159 0-128.216 106.27-219.472 219.085-219.472 120.901 0 219.085 98.185 219.085 219.472v242.187c48.247-34.648 106.166-53.237 165.564-53.135v118.976c0 0-72.385-3.465-124.752 56.986z" />
<glyph unicode="&#xe90f;" glyph-name="s_twitter" d="M784.384 607.861c0.501-6.738 0.501-13.438 0.501-20.138 0-205.032-156.052-441.291-441.25-441.291-87.865 0-169.493 25.452-238.184 69.655 12.475-1.428 24.488-1.923 37.464-1.923 69.807-0.171 137.636 23.171 192.556 66.264-32.365 0.586-63.74 11.264-89.743 30.544s-45.336 46.194-55.3 76.993c9.587-1.422 19.213-2.384 29.301-2.384 13.9 0 27.876 1.923 40.852 5.274-35.124 7.091-66.708 26.13-89.382 53.878s-35.035 62.492-34.985 98.326v1.925c20.676-11.513 44.664-18.713 70.077-19.676-21.29 14.147-38.746 33.343-50.812 55.877s-18.367 47.704-18.34 73.264c0 28.801 7.662 55.214 21.1 78.239 38.971-47.938 87.577-87.155 142.669-115.112s115.443-44.031 177.142-47.18c-2.387 11.551-3.85 23.526-3.85 35.539-0.010 20.37 3.994 40.542 11.785 59.363s19.214 35.922 33.618 50.326c14.404 14.404 31.504 25.828 50.326 33.618s38.992 11.795 59.364 11.785c44.663 0 84.975-18.712 113.317-48.977 34.719 6.715 68.016 19.39 98.412 37.464-11.571-35.839-35.817-66.23-68.187-85.478 30.794 3.512 60.888 11.61 89.287 24.026-21.208-30.923-47.491-58.039-77.739-80.203z" />
<glyph unicode="&#xe910;" glyph-name="s_youtube" d="M490.719 183.74h-0.77c-2.387 0-241.225 0.461-301.483 16.822-16.282 4.386-31.126 12.976-43.046 24.9-11.92 11.93-20.498 26.778-24.875 43.059-10.836 61.133-16.068 123.122-15.632 185.203-0.28 62.183 5.094 124.262 16.056 185.472 4.501 16.311 13.119 31.192 25.025 43.213s26.705 20.782 42.972 25.438c58.602 15.402 290.856 15.402 300.713 15.402h0.809c2.425 0 241.877-0.462 301.519-16.826 33.075-8.971 58.914-34.807 67.846-67.882 11.167-61.375 16.441-123.635 15.673-186.011 0.267-62.108-5.12-124.112-16.094-185.239-4.437-16.27-13.050-31.090-24.986-43.002-11.935-11.907-26.778-20.486-43.054-24.883-58.527-15.514-290.817-15.667-300.674-15.667zM413.711 569.043l-0.192-231.021 200.682 115.51-200.49 115.511z" />
<glyph unicode="&#xe911;" glyph-name="screw" d="M959.938 439.384c0.095-4.491-1.368-8.876-4.136-12.412l-211.781-283.337c-1.927-2.6-4.418-4.732-7.281-6.235s-6.031-2.341-9.264-2.454h-423.977c-3.304 0.051-6.553 0.859-9.494 2.363-2.941 1.507-5.496 3.672-7.465 6.327l-211.781 283.337c-2.623 3.606-4.036 7.951-4.036 12.412 0 4.458 1.413 8.803 4.036 12.409l211.781 283.339c1.991 2.601 4.559 4.702 7.503 6.138s6.181 2.167 9.456 2.135h423.977c3.204-0.031 6.36-0.793 9.227-2.226s5.369-3.501 7.318-6.047l211.781-283.339c2.71-3.566 4.165-7.929 4.136-12.409zM717.133 176.311l196.476 263.073-196.476 262.657h-403.294l-196.89-262.657 196.89-263.073h403.294zM725.405 439.384c0.095-4.491-1.364-8.876-4.136-12.412l-94.724-126.983c-1.946-2.545-4.451-4.615-7.314-6.049-2.867-1.434-6.023-2.194-9.231-2.224h-189.444c-3.204 0.029-6.36 0.79-9.227 2.224s-5.372 3.504-7.318 6.049l-95.551 126.983c-2.819 3.522-4.356 7.899-4.356 12.412 0 4.509 1.536 8.887 4.356 12.409l94.724 126.57c1.876 2.619 4.367 4.74 7.248 6.181 2.882 1.445 6.075 2.161 9.296 2.092h189.444c3.222 0.069 6.411-0.647 9.296-2.092 2.882-1.441 5.369-3.562 7.248-6.181l96.377-126.57c2.421-3.668 3.58-8.024 3.31-12.409zM598.005 333.078l82.728 106.306-82.728 106.715h-165.453l-82.727-106.715 82.727-106.306h165.453z" />
<glyph unicode="&#xe912;" glyph-name="search" d="M429.603 260.38c-55.352 0-109.459 16.424-155.472 47.195-46.012 30.766-81.861 74.496-103.008 125.648s-26.64 107.43-15.786 161.707c10.855 54.277 37.57 104.113 76.764 143.198s89.103 65.663 143.41 76.368c54.307 10.705 110.569 5.056 161.663-16.232s94.725-57.258 125.365-103.355c30.64-46.097 46.916-100.25 46.763-155.601-0.307-74.015-29.901-144.9-82.307-197.167-52.41-52.264-123.377-81.658-197.392-81.761zM429.603 781.199c-47.656-0.001-94.243-14.123-133.878-40.583s-70.54-64.073-88.812-108.087c-18.272-44.013-23.092-92.455-13.851-139.206s32.129-89.715 65.773-123.466c33.644-33.752 76.535-56.775 123.256-66.167s95.178-4.727 139.25 13.403c44.072 18.136 81.783 48.919 108.368 88.468 26.59 39.55 40.858 86.092 41.011 133.747 0 63.949-25.401 125.278-70.622 170.497-45.218 45.219-106.547 70.622-170.495 70.622v0.771zM863.613 86.010c-2.526-0.028-5.035 0.472-7.361 1.468s-4.415 2.469-6.138 4.324l-249.993 249.987c-3.581 3.584-5.593 8.442-5.593 13.505s2.012 9.921 5.593 13.5c3.578 3.584 8.437 5.598 13.5 5.598 5.069 0 9.921-2.014 13.505-5.598l249.993-249.987c1.843-1.735 3.317-3.829 4.318-6.15 1.007-2.321 1.525-4.824 1.525-7.356s-0.518-5.035-1.525-7.356c-1.001-2.321-2.475-4.415-4.318-6.144-1.724-1.855-3.817-3.328-6.138-4.324-2.327-0.996-4.836-1.496-7.367-1.468z" />
<glyph unicode="&#xe913;" glyph-name="sword" d="M511.426 192.572c-5.474 0.077-10.697 2.317-14.529 6.226l-236.625 236.625c-1.946 1.929-3.488 4.225-4.543 6.753-1.054 2.53-1.596 5.243-1.596 7.984s0.542 5.452 1.596 7.982c1.054 2.528 2.597 4.825 4.543 6.753l348.294 352.86c1.737 2.136 3.967 3.818 6.498 4.902 2.53 1.085 5.286 1.539 8.031 1.324h238.699c5.471-0.106 10.688-2.327 14.559-6.197 3.869-3.87 6.090-9.088 6.196-14.559l2.491-236.208c0.065-2.788-0.455-5.56-1.528-8.133-1.073-2.575-2.672-4.895-4.699-6.812l-352.86-353.275c-3.858-3.873-9.063-6.104-14.529-6.226zM303.861 450.367l207.565-207.565 332.103 332.103-2.491 207.565h-207.565l-329.612-332.103zM627.247 76.751c-5.4 0.052-10.584 2.127-14.529 5.813l-468.681 468.68c-1.945 1.929-3.489 4.225-4.543 6.755-1.054 2.528-1.596 5.241-1.596 7.982s0.543 5.452 1.596 7.982 2.598 4.825 4.543 6.755c1.864 1.986 4.114 3.567 6.613 4.65 2.499 1.081 5.193 1.64 7.916 1.64s5.417-0.559 7.916-1.64c2.499-1.083 4.75-2.664 6.613-4.65l469.096-468.681c3.829-3.95 5.971-9.234 5.971-14.736 0-5.503-2.142-10.787-5.971-14.737-4.096-3.715-9.417-5.785-14.945-5.813zM303.861 79.242c-5.608 0.013-10.984 2.253-14.944 6.226l-144.050 141.973c-2.168 1.939-3.914 4.302-5.128 6.946-1.214 2.642-1.871 5.506-1.929 8.414 0 11.209 0 12.869 166.051 176.016 1.93 1.946 4.225 3.49 6.755 4.543s5.243 1.596 7.982 1.596c2.741 0 5.454-0.542 7.984-1.596 2.528-1.053 4.825-2.597 6.753-4.543 3.831-3.95 5.971-9.236 5.971-14.737s-2.14-10.787-5.971-14.737c-44.833-46.495-116.65-117.481-144.879-146.541l115.405-113.33 146.541 146.956c3.908 3.908 9.209 6.104 14.737 6.104s10.829-2.196 14.737-6.104c3.908-3.908 6.104-9.209 6.104-14.737s-2.196-10.828-6.104-14.737l-163.561-161.485c-3.31-3.448-7.709-5.647-12.454-6.226zM511.426 429.612c-2.723-0.034-5.42 0.504-7.923 1.576s-4.752 2.656-6.606 4.65c-1.986 1.863-3.569 4.114-4.65 6.614-1.083 2.498-1.64 5.192-1.64 7.917 0 2.723 0.557 5.417 1.64 7.915 1.081 2.5 2.664 4.751 4.65 6.614l166.051 166.051c1.909 1.909 4.173 3.421 6.666 4.455 2.493 1.032 5.165 1.563 7.863 1.563s5.372-0.53 7.865-1.563c2.493-1.034 4.757-2.547 6.666-4.455 1.907-1.907 3.421-4.173 4.454-6.666s1.565-5.165 1.565-7.863c0-2.698-0.532-5.37-1.565-7.863s-2.547-4.759-4.454-6.666l-166.053-166.053c-1.853-1.994-4.103-3.577-6.606-4.65-2.501-1.073-5.201-1.61-7.923-1.576z" />
<glyph unicode="&#xe914;" glyph-name="target" d="M505.153 325.46c-25.074 0-49.584 7.392-70.432 21.244-20.848 13.854-37.099 33.543-46.694 56.577-9.595 23.037-12.105 48.385-7.212 72.84 4.89 24.454 16.965 46.916 34.694 64.548 17.732 17.629 40.321 29.638 64.911 34.5 24.593 4.865 50.085 2.369 73.249-7.174s42.964-25.7 56.896-46.431c13.929-20.732 21.366-45.106 21.366-70.039-0.111-33.402-13.5-65.403-37.251-89.022-23.754-23.621-55.935-36.936-89.525-37.044zM505.153 536.529c-16.907 0-33.432-4.984-47.491-14.325-14.056-9.341-25.013-22.617-31.481-38.148-6.471-15.532-8.164-32.624-4.865-49.113s11.438-31.633 23.394-43.523c11.956-11.887 27.186-19.982 43.766-23.264 16.583-3.28 33.77-1.594 49.39 4.838 15.62 6.435 28.971 17.331 38.361 31.307 9.393 13.979 14.408 30.413 14.408 47.226 0 22.545-9.006 44.165-25.038 60.106-16.030 15.941-37.772 24.897-60.444 24.897zM505.153 184.611c-53.087 0-104.982 15.653-149.125 44.981-44.14 29.331-78.544 71.016-98.86 119.789s-25.632 102.442-15.274 154.217c10.357 51.778 35.921 99.339 73.46 136.668s85.366 62.749 137.435 73.048c52.069 10.299 106.037 5.013 155.083-15.189 49.047-20.204 90.97-54.413 120.464-98.307 29.494-43.896 45.236-95.5 45.236-148.292 0-70.792-28.279-138.683-78.618-188.737-50.337-50.057-118.61-78.178-189.8-78.178zM505.153 677.379c-44.92 0-88.833-13.246-126.182-38.062-37.351-24.817-66.46-60.092-83.652-101.359-17.189-41.27-21.687-86.683-12.925-130.494 8.765-43.811 30.396-84.054 62.16-115.64s72.234-53.096 116.29-61.811c44.057-8.715 89.725-4.24 131.224 12.853 41.502 17.095 76.974 46.044 101.93 83.185 24.958 37.141 38.278 80.807 38.278 125.476-0.111 59.865-24.072 117.251-66.643 159.581-42.571 42.333-100.277 66.164-160.48 66.272zM505.153 43.761c-81.101 0-160.383 23.915-227.815 68.719-67.435 44.807-119.994 108.491-151.030 183-31.037 74.511-39.157 156.498-23.335 235.597s54.877 151.757 112.224 208.783c57.348 57.027 130.414 95.863 209.956 111.597 79.545 15.734 161.994 7.659 236.923-23.204s138.971-83.127 184.029-150.185c45.056-67.055 69.106-145.892 69.106-226.542-0.108-108.112-43.346-211.766-120.223-288.214s-181.115-119.443-289.836-119.551zM505.153 818.228c-72.934 0-144.232-21.507-204.875-61.801s-107.908-97.564-135.819-164.572c-27.911-67.006-35.214-140.736-20.985-211.868 14.229-71.135 49.35-136.474 100.923-187.76 51.572-51.283 117.279-86.207 188.813-100.358 71.533-14.148 145.679-6.888 213.064 20.867 67.382 27.756 124.975 74.755 165.495 135.060 40.52 60.303 62.148 131.202 62.148 203.729 0 48.156-9.537 95.841-28.071 140.33-18.532 44.491-45.693 84.917-79.936 118.968s-74.896 61.063-119.636 79.491c-44.74 18.429-92.694 27.914-141.121 27.914z" />
<glyph unicode="&#xe915;" glyph-name="thought" d="M560.876 108.039c-57.056-0.052-113.29 13.612-163.962 39.837-2.45 1.266-4.627 3.004-6.407 5.111-1.779 2.109-3.125 4.546-3.962 7.174s-1.149 5.396-0.917 8.145c0.233 2.748 1.005 5.426 2.271 7.876s3.004 4.627 5.111 6.407c2.109 1.779 4.546 3.125 7.175 3.964 2.628 0.837 5.395 1.147 8.145 0.916 2.748-0.233 5.424-1.005 7.874-2.271 67.87-34.528 145.941-43.332 219.795-24.784s138.503 63.193 182.005 125.691c43.504 62.497 62.923 138.626 54.671 214.325s-43.616 145.855-99.562 197.512c-55.946 51.657-128.696 81.326-204.812 83.526-76.116 2.201-150.457-23.217-209.292-71.555-58.837-48.34-98.194-116.337-110.804-191.433-12.612-75.096 2.379-152.218 42.199-217.125 2.809-4.802 3.636-10.51 2.305-15.912s-4.715-10.074-9.434-13.021c-2.364-1.447-4.991-2.409-7.729-2.833s-5.534-0.301-8.225 0.362c-2.691 0.663-5.222 1.852-7.451 3.499-2.228 1.649-4.106 3.721-5.528 6.099-46.018 73.691-63.537 161.652-49.265 247.351 14.274 85.7 59.355 163.235 126.773 218.033 67.416 54.8 152.527 83.089 239.334 79.551s169.334-38.658 232.070-98.761c48.447-44.905 83.463-102.39 101.139-166.038s17.317-130.958-1.036-194.415c-18.355-63.455-53.981-120.563-102.906-164.949-48.923-44.385-109.219-74.302-174.157-86.411-21.572-4.014-43.474-5.981-65.416-5.871zM235.471 86.234c-8.13 0.153-16.095 2.306-23.193 6.272-7.098 3.964-13.11 9.615-17.504 16.455-4.396 6.842-7.036 14.658-7.69 22.762-0.654 8.103 0.698 16.243 3.937 23.7l63.739 143.413c2.373 5.083 6.647 9.030 11.904 10.991 5.255 1.96 11.070 1.778 16.193-0.508 5.053-2.288 8.993-6.485 10.958-11.674 1.965-5.187 1.794-10.94-0.475-16.003l-64.159-143.413c-0.816-1.089-1.258-2.413-1.258-3.774s0.442-2.685 1.258-3.774c0.916-1.048 2.119-1.806 3.461-2.179s2.762-0.344 4.087 0.082l161.445 57.449c2.584 0.994 5.341 1.456 8.107 1.358 2.768-0.099 5.485-0.755 7.992-1.931 2.507-1.174 4.75-2.843 6.595-4.908 1.845-2.063 3.255-4.477 4.143-7.1 1.888-5.227 1.624-10.989-0.735-16.022s-6.62-8.922-11.846-10.816l-160.186-57.449c-5.366-1.992-11.050-2.986-16.773-2.934z" />
<glyph unicode="&#xe916;" glyph-name="trophy" d="M506.214 290.348c-59.197 0-115.968 23.518-157.826 65.376-41.859 41.858-65.374 98.628-65.374 157.826v270.592c-0.617 8.36-0.617 16.755 0 25.115 0.3 2.614 1.118 5.143 2.404 7.439s3.017 4.313 5.090 5.934c2.073 1.621 4.448 2.813 6.986 3.508s5.189 0.877 7.799 0.538c5.309-0.611 10.162-3.296 13.5-7.469s4.892-9.497 4.323-14.81c-0.415-6.745-0.415-13.509 0-20.254v-270.592c3.085-46.247 23.629-89.59 57.476-121.252 33.847-31.665 78.462-49.282 124.809-49.282 46.35 0 90.965 17.616 124.809 49.282 33.847 31.662 54.395 75.005 57.477 121.252v270.592c0.416 6.745 0.416 13.509 0 20.254-0.645 5.372 0.87 10.779 4.215 15.033 3.342 4.254 8.236 7.006 13.609 7.651s10.779-0.871 15.032-4.214c4.256-3.342 7.008-8.238 7.653-13.61 0.618-8.36 0.618-16.755 0-25.115v-270.592c0-58.986-23.347-115.575-64.945-157.399-41.595-41.824-98.055-65.478-157.037-65.802zM731.034 538.262c-3.744 0.085-7.39 1.208-10.534 3.239l-21.873 12.964c-4.622 2.792-7.943 7.308-9.233 12.547-1.29 5.243-0.447 10.783 2.345 15.404 2.792 4.618 7.308 7.939 12.547 9.23 5.243 1.294 10.783 0.447 15.404-2.345l16.606-10.127c125.17 4.052 149.071 152.31 153.525 207.401h-767.624c4.456-55.496 27.14-202.54 153.93-207.401l16.608 10.127c2.287 1.382 4.825 2.301 7.467 2.703s5.338 0.283 7.934-0.358c2.595-0.638 5.039-1.782 7.193-3.366 2.153-1.587 3.973-3.577 5.357-5.864 1.383-2.29 2.302-4.826 2.704-7.468s0.281-5.338-0.359-7.936c-0.639-2.594-1.784-5.038-3.368-7.192s-3.577-3.973-5.864-5.356l-21.874-12.964c-3.144-2.031-6.789-3.154-10.532-3.239-158.386 0-200.514 175.804-200.514 268.567 0 5.372 2.134 10.523 5.932 14.322s8.95 5.932 14.322 5.932h810.158c5.373 0 10.523-2.134 14.322-5.932s5.932-8.95 5.932-14.322c0-92.763-42.127-268.567-200.513-268.567zM506.214 64.72c-5.373 0-10.523 2.133-14.322 5.932s-5.932 8.95-5.932 14.322v225.628c0 5.373 2.133 10.523 5.932 14.322s8.95 5.932 14.322 5.932c5.369 0 10.523-2.133 14.322-5.932 3.796-3.799 5.929-8.95 5.929-14.322v-225.628c0-5.373-2.133-10.523-5.929-14.322-3.799-3.799-8.953-5.932-14.322-5.932zM731.843 64.717h-405.079c-5.372 0-10.523 2.133-14.322 5.932s-5.932 8.95-5.932 14.322c0 5.373 2.134 10.523 5.932 14.322 3.798 3.796 8.95 5.932 14.322 5.932h405.079c5.373 0 10.523-2.137 14.322-5.932 3.799-3.799 5.932-8.95 5.932-14.322s-2.133-10.523-5.932-14.322c-3.799-3.799-8.95-5.932-14.322-5.932z" />
</font>
</defs>
</svg>
